<?xml version="1.0" encoding="UTF-8" standalone="no"?>
<!-- Created with Inkscape (http://www.inkscape.org/) -->

<svg
   xmlns:dc="http://purl.org/dc/elements/1.1/"
   xmlns:cc="http://creativecommons.org/ns#"
   xmlns:rdf="http://www.w3.org/1999/02/22-rdf-syntax-ns#"
   xmlns:svg="http://www.w3.org/2000/svg"
   xmlns="http://www.w3.org/2000/svg"
   xmlns:sodipodi="http://sodipodi.sourceforge.net/DTD/sodipodi-0.dtd"
   xmlns:inkscape="http://www.inkscape.org/namespaces/inkscape"
   width="50.799999mm"
   height="50.799999mm"
   viewBox="0 0 50.799999 50.800001"
   version="1.1"
   id="svg3808"
   inkscape:version="0.92+devel unknown"
   sodipodi:docname="logo.svg">
  <defs
     id="defs3802" />
  <sodipodi:namedview
     id="base"
     pagecolor="#ffffff"
     bordercolor="#666666"
     borderopacity="1.0"
     inkscape:pageopacity="0.0"
     inkscape:pageshadow="2"
     inkscape:zoom="0.98994949"
     inkscape:cx="-117.30405"
     inkscape:cy="165.98284"
     inkscape:document-units="mm"
     inkscape:current-layer="layer1"
     inkscape:document-rotation="0"
     showgrid="false"
     inkscape:window-width="1920"
     inkscape:window-height="1016"
     inkscape:window-x="0"
     inkscape:window-y="0"
     inkscape:window-maximized="1" />
  <metadata
     id="metadata3805">
    <rdf:RDF>
      <cc:Work
         rdf:about="">
        <dc:format>image/svg+xml</dc:format>
        <dc:type
           rdf:resource="http://purl.org/dc/dcmitype/StillImage" />
        <dc:title></dc:title>
      </cc:Work>
    </rdf:RDF>
  </metadata>
  <g
     inkscape:label="Calque 1"
     inkscape:groupmode="layer"
     id="layer1"
     transform="translate(-38.994665,5.5754614)">
    <path
       d="m 65.550325,39.790629 c 0.734309,0 1.297548,0.460068 1.297548,1.059861 0,0.596383 -0.562943,1.058156 -1.297548,1.058156 h -2.76197 c -0.732181,0 -1.297489,-0.461759 -1.297489,-1.058156 0,-0.599793 0.565308,-1.059861 1.297489,-1.059861 h 0.05913 V 33.20314 h -0.05913 c -0.732181,0 -1.297489,-0.460068 -1.297489,-1.059861 0,-0.550376 0.565308,-1.058156 1.297489,-1.058156 h 2.76197 c 0.734309,0 1.297548,0.50778 1.297548,1.058156 0,0.599793 -0.562943,1.059861 -1.297548,1.059861 h -0.112944 v 6.587489 z M 65.099734,22.795383 c -0.16912,-0.04444 -0.394415,-0.04444 -0.563535,-0.04444 -0.281471,0 -0.619533,0.04444 -0.903252,0.09032 V 18.55922 h 1.466491 z m 23.343158,12.29744 H 74.178315 v -7.831372 c 0,-0.412347 -0.225295,-0.736109 -0.619533,-0.964438 H 70.060433 V 8.7939881 c 3.329348,-2.3497508 7.274089,-5.2515877 7.952104,-6.4477638 0.957477,-1.51992381 1.464421,-5.1118623 1.520715,-5.803669 0.170894,-1.0581558 -0.788534,-2.0260031 -2.086082,-2.1180167 -0.112352,0 -0.16912,0 -0.225296,0 -1.239125,0 -2.255025,0.7361084 -2.367672,1.7056608 -0.225296,1.6562439 -0.675887,3.77426056 -1.01383,4.46776741 C 73.389781,1.1023411 71.076333,2.8540038 68.70866,4.6022613 H 60.53333 C 58.107235,2.8540038 55.85221,1.1023411 55.401619,0.59796681 55.007204,-0.09554004 54.556731,-2.2135567 54.387789,-3.8698006 54.273072,-4.839353 53.259242,-5.5754614 52.017988,-5.5754614 c -0.05913,0 -0.16912,0 -0.225296,0 -1.295419,0.092014 -2.255025,1.0598609 -2.142377,2.1180167 0.112352,0.6918067 0.565309,4.28374519 1.522844,5.803669 0.675887,1.1041626 4.284754,3.8219724 7.499384,6.0780045 V 26.297013 h -3.439925 c -0.394415,0.228319 -0.619533,0.552082 -0.619533,0.964438 v 4.237733 H 40.346438 c -0.732181,0 -1.351773,0.50778 -1.351773,1.151874 v 11.469318 c 0,0.596383 0.619592,1.104163 1.351773,1.104163 h 48.096454 c 0.73425,0 1.351773,-0.50778 1.351773,-1.104163 v -7.877384 c 0,-0.644095 -0.617523,-1.150169 -1.351773,-1.150169 z M 64.365424,3.6804207 c 3.045688,0 5.582362,-2.072005 5.582362,-4.55807591 0,-2.53378269 -2.536674,-4.55978579 -5.582362,-4.55978579 -3.099854,0 -5.580233,2.0260031 -5.580233,4.55978579 0,2.48607091 2.480379,4.55807591 5.580233,4.55807591 v 0"
       style="fill:#100f0d;fill-opacity:1;fill-rule:evenodd;stroke:none;stroke-width:0.18853562"
       id="path3759"
       inkscape:connector-curvature="0" />
  </g>
</svg>
