<?xml version="1.0" encoding="UTF-8" standalone="no"?>
<!-- Created with Inkscape (http://www.inkscape.org/) -->

<svg
   xmlns:dc="http://purl.org/dc/elements/1.1/"
   xmlns:cc="http://creativecommons.org/ns#"
   xmlns:rdf="http://www.w3.org/1999/02/22-rdf-syntax-ns#"
   xmlns:svg="http://www.w3.org/2000/svg"
   xmlns="http://www.w3.org/2000/svg"
   xmlns:sodipodi="http://sodipodi.sourceforge.net/DTD/sodipodi-0.dtd"
   xmlns:inkscape="http://www.inkscape.org/namespaces/inkscape"
   version="1.1"
   id="svg64"
   xml:space="preserve"
   width="1866.6667"
   height="1306.6667"
   viewBox="0 0 1866.6667 1306.6667"
   sodipodi:docname="6-01.svg"
   inkscape:version="0.92+devel unknown"><metadata
     id="metadata70"><rdf:RDF><cc:Work
         rdf:about=""><dc:format>image/svg+xml</dc:format><dc:type
           rdf:resource="http://purl.org/dc/dcmitype/StillImage" /><dc:title></dc:title></cc:Work></rdf:RDF></metadata><defs
     id="defs68" /><sodipodi:namedview
     pagecolor="#ffffff"
     bordercolor="#666666"
     inkscape:document-rotation="0"
     borderopacity="1"
     objecttolerance="10"
     gridtolerance="10"
     guidetolerance="10"
     inkscape:pageopacity="0"
     inkscape:pageshadow="2"
     inkscape:window-width="1920"
     inkscape:window-height="1016"
     id="namedview66"
     showgrid="true"
     inkscape:zoom="1.3075636"
     inkscape:cx="1581.5167"
     inkscape:cy="905.0559"
     inkscape:window-x="0"
     inkscape:window-y="0"
     inkscape:window-maximized="1"
     inkscape:current-layer="g72" /><g
     id="g72"
     inkscape:groupmode="layer"
     inkscape:label="ink_ext_XXXXXX"
     transform="matrix(1.3333333,0,0,-1.3333333,0,1306.6667)"><g
       id="g74"
       transform="scale(0.1)"><path
         d="m 3368.59,8637.56 c -4.62,-1.47 -9.02,-2.84 -13.31,-4.16 -75.81,57.03 -200.71,171.27 -188.31,297.76 6.14,62.66 30.75,97 60.1,115.65 10.55,-26.15 31.38,-37.83 53.18,-42.27 2.43,-37.43 10.81,-71.93 21.13,-115.83 14.15,-60.13 106.12,-173.33 106.12,-173.33 0,0 38.91,-53.06 -38.91,-77.82 z M 3139.85,8053.9 c 0,0 -94.33,73.11 -103.76,129.71 -9.44,56.59 66.03,49.52 103.76,61.31 16.38,5.12 0,-191.02 0,-191.02 z M 4755.22,5075.49 c -24.76,28.29 -102.58,24.76 -162.72,35.37 -60.13,10.61 -130.88,70.75 -166.53,155.64 -56.88,120.27 -119.99,17.69 -123.53,81.36 -14.15,152.1 35.38,509.37 56.6,604.88 21.22,95.51 38.91,219.31 60.14,325.43 21.22,106.12 -10.62,159.18 -49.53,208.7 -38.91,49.53 -63.67,120.27 -123.8,205.17 -60.14,84.89 -240.54,279.45 -325.44,353.73 -84.89,74.28 -240.53,148.57 -247.61,212.24 -7.07,63.67 -3.54,268.83 42.45,268.83 45.99,0 215.78,10.62 272.37,28.3 56.6,17.69 113.2,42.45 212.24,74.29 99.05,31.83 91.97,99.04 81.36,148.56 -10.61,49.53 -35.37,49.53 -45.99,102.59 -10.61,53.06 -63.67,-7.08 -84.89,38.91 -21.22,45.98 -56.6,17.68 -81.36,-14.15 -24.76,-31.84 -123.8,-166.26 -141.49,-208.7 -17.69,-42.45 -162.72,-35.38 -191.02,-21.23 -28.29,14.15 0,99.05 -14.15,166.26 -14.14,67.2 10.62,74.28 72.86,155.64 62.24,81.36 54.49,187.47 33.26,247.61 -21.22,60.13 -134.41,173.33 -134.41,173.33 0,0 -56.6,130.88 14.15,134.42 70.74,3.53 145.03,3.53 137.95,45.98 -7.07,42.45 7.08,81.36 7.08,81.36 0,0 7.07,53.06 28.29,84.89 21.23,31.84 53.06,7.08 60.14,45.99 7.07,38.91 -42.45,63.67 -74.29,99.04 -31.83,35.38 38.91,102.59 0,201.63 -38.91,99.05 -106.43,145.64 -219.31,159.18 -176.86,21.22 -233.46,-24.76 -293.6,-53.06 -13.48,-6.35 -24.16,-15.84 -33.15,-26.93 -27.31,5.68 -64.8,5.14 -85.82,-31.41 -40.43,-1.18 -88.72,-13.1 -142.18,-47.78 -152.71,-99.04 -57.2,-272.37 -103.19,-360.81 -45.98,-88.43 -169.79,-134.41 -222.85,-77.82 0,0 42.45,-120.26 251.15,-42.44 0,0 -99.05,-88.44 -67.21,-180.41 l 7.59,2.4 c -95.11,-60.6 -159.62,-119.05 -202.14,-161.58 -60.14,-60.13 24.76,-166.25 102.58,-261.76 77.82,-95.5 229.93,-166.25 268.84,-208.7 38.91,-42.45 24.76,-237 21.22,-314.82 -3.54,-77.82 -77.82,-116.73 -169.79,-155.64 -91.97,-38.91 -166.25,-145.03 -169.79,-272.37 -3.54,-127.35 -63.67,-244.08 -106.12,-339.59 -42.45,-95.5 -162.72,-332.5 -208.7,-371.41 -45.99,-38.91 -173.33,0 -290.06,-28.3 -116.73,-28.3 -229.93,-120.27 -346.66,-233.47 -116.73,-113.19 -194.55,-91.97 -247.61,-60.13 -53.06,31.84 -91.97,17.69 -145.03,-31.84 -53.06,-49.52 -3.54,-215.77 -10.61,-290.06 -7.08,-74.28 -81.36,-56.59 -63.67,-187.47 17.68,-130.88 53.05,-183.94 113.19,-173.33 60.13,10.61 70.75,31.83 63.67,88.43 -24.76,88.43 28.3,201.63 128.2,208.7 99.9,7.08 66.35,42.45 16.83,49.53 -49.52,7.07 21.22,42.44 70.75,95.5 49.52,53.06 279.44,106.12 374.95,141.5 95.51,35.37 282.99,81.35 474,99.04 191.02,17.69 106.12,84.9 272.38,183.94 208.7,152.11 389.1,463.39 438.62,456.31 49.52,-7.07 297.14,-159.18 364.35,-201.62 67.2,-42.45 346.65,-137.96 336.04,-212.24 -7.07,-99.05 -24.76,-226.39 -24.76,-332.51 0,-106.12 49.52,-328.97 56.6,-406.79 7.07,-77.82 35.37,-268.84 10.61,-275.91 -24.76,-7.08 -28.3,14.15 -35.38,-24.76 -7.07,-38.91 -7.07,-198.09 17.69,-244.08 24.76,-45.98 258.23,-28.3 311.28,-24.76 53.06,3.54 198.09,-45.98 251.15,-31.83 53.06,14.15 162.72,35.37 166.26,70.74 3.54,35.38 -17.69,45.99 -42.45,74.29"
         style="fill:#231f20;fill-opacity:1;fill-rule:nonzero;stroke:none"
         id="path76"
         inkscape:connector-curvature="0" /><path
         d="m 7680.58,7714.32 c 31.83,88.43 79.49,350.09 112.82,343.12 62.78,-13.12 138.33,-74.28 191.39,-81.36 53.06,-7.07 120.27,-10.61 106.12,-84.89 -14.15,-74.29 -31.84,-254.69 -53.06,-328.97 -21.23,-74.29 -51.52,-159.18 -94.74,-222.85 -43.22,-63.67 -21.99,-53.06 -75.05,-45.99 -53.06,7.08 -81.36,17.69 -113.2,67.21 -31.83,49.52 -31.83,70.75 -74.28,109.66 -42.45,38.91 -31.84,155.64 0,244.07 z M 6262.12,6522.25 c 49.52,-99.05 198.09,-318.36 293.59,-396.18 95.51,-77.82 183.94,-279.45 261.76,-367.88 77.82,-88.44 10.62,-84.9 10.62,-84.9 0,0 -42.45,-63.67 -24.77,-159.18 17.69,-95.5 -28.29,-102.58 -74.28,-169.79 -45.98,-67.21 -102.58,-88.43 -130.88,-145.03 -28.3,-56.59 60.13,-56.59 114.98,-42.45 54.85,14.15 132.63,42.45 199.84,88.44 67.21,45.98 176.87,95.5 279.45,148.56 102.58,53.06 155.64,70.75 109.66,137.96 -45.99,67.21 -53.06,88.43 -123.81,123.81 -70.75,35.37 -81.36,84.89 -127.34,162.71 -45.99,77.82 -134.42,215.78 -141.5,336.05 -7.07,120.27 -145.03,332.5 -187.47,378.49 -42.45,45.98 70.74,49.52 286.52,17.69 215.77,-31.84 311.28,53.06 403.25,88.43 91.97,35.37 169.79,-84.9 215.78,-180.4 45.98,-95.51 261.76,-286.53 321.89,-378.5 60.14,-91.97 113.2,-67.21 293.6,-141.49 180.4,-74.28 314.82,-215.78 424.48,-290.06 109.65,-74.28 183.94,-191.01 226.39,-226.39 42.44,-35.37 84.89,-88.43 21.22,-95.5 -63.67,-7.08 -49.52,-60.14 31.84,-63.68 81.35,-3.53 3.53,-60.13 56.59,-60.13 53.06,0 63.67,-31.84 113.2,-88.43 49.52,-56.6 45.98,-187.48 95.5,-186.49 74.29,8.06 130.89,115.74 141.5,246.62 10.61,130.88 -38.91,137.96 -45.99,198.09 -7.07,60.13 3.54,91.97 0,155.64 -3.54,63.67 -49.52,95.51 -91.97,81.36 -42.45,-14.15 -169.79,7.08 -219.31,35.37 -49.52,28.3 -279.45,328.97 -353.73,420.94 -116.73,152.11 -212.24,155.65 -290.06,166.26 -77.82,10.61 -180.41,88.43 -215.78,134.42 -35.37,45.98 -49.52,212.23 -99.04,307.74 -49.53,95.51 -166.26,187.48 -127.35,251.15 38.91,63.67 56.6,145.03 70.75,91.97 14.15,-53.06 21.22,-162.72 53.06,-120.27 31.84,42.45 -21.22,183.94 45.98,240.54 67.21,56.6 42.45,137.96 70.75,191.01 49.52,70.75 169.79,364.35 212.24,527.06 42.45,162.72 7.07,145.03 -56.6,212.24 -63.67,67.21 -442.16,367.88 -519.98,413.87 -77.82,45.98 -148.57,155.64 -204.54,198.09 -55.97,42.45 -99.67,28.3 -43.07,84.89 56.59,56.6 45.98,176.87 31.83,286.53 -14.15,109.65 -124.52,163.93 -240.54,176.86 -66.19,7.38 -219.31,10.62 -247.61,-56.59 -28.3,-67.21 -63.67,-116.74 -42.45,-166.26 21.23,-49.52 21.23,-24.76 -35.37,-109.65 -56.6,-84.9 -28.3,-102.59 21.22,-99.05 49.53,3.54 0,-53.06 35.38,-67.21 35.37,-14.15 0,-35.37 3.54,-99.04 3.53,-63.68 45.98,-28.3 99.04,-35.38 53.06,-7.07 -3.54,-28.3 -38.91,-53.06 -35.37,-24.76 -53.06,-31.83 -56.6,-91.97 -3.53,-60.13 -77.82,-81.36 -116.73,-152.1 -38.91,-70.75 -38.91,-53.06 -56.6,-21.23 -17.68,31.84 -70.74,127.35 -49.52,159.18 35.38,49.53 42.45,70.75 53.06,134.42 10.61,63.67 -21.22,84.9 -31.83,56.6 -10.62,-28.3 -14.15,-81.36 -70.75,-81.36 -56.6,0 -95.51,95.51 -137.96,134.42 -42.44,38.91 -60.13,-14.15 -60.13,-14.15 -38.91,7.07 -31.84,-53.06 -31.84,-53.06 -42.44,-7.08 -35.37,-42.45 -24.76,-74.28 10.62,-31.84 67.21,-42.45 38.91,-63.68 -28.29,-21.22 -84.89,21.23 -120.26,-7.07 -35.38,-28.3 28.29,-38.91 91.97,-45.99 63.67,-7.07 148.56,-109.65 148.56,-109.65 0,0 31.84,-120.27 49.52,-194.55 17.69,-74.29 67.21,-208.71 145.03,-215.78 77.83,-7.07 137.96,95.51 180.41,130.88 42.45,35.37 38.91,-10.61 42.45,-88.43 3.53,-77.82 -7.08,-410.33 0,-516.45 7.07,-106.12 21.22,-336.05 -49.53,-332.51 -70.74,3.54 -194.55,-45.98 -290.06,-77.82 -95.5,-31.83 -265.3,-130.88 -417.4,-233.46 -152.1,-102.58 -148.57,-162.72 -99.04,-261.76"
         style="fill:#231f20;fill-opacity:1;fill-rule:nonzero;stroke:none"
         id="path78"
         inkscape:connector-curvature="0" /><path
         d="m 7323.49,3993.27 c -35.82,18.34 -72.63,34.88 -105.5,49.2 -23.93,83.31 9.95,148.69 9.95,148.69 0,0 1.04,-124.99 72.13,-174.51 8.57,-5.97 16.33,-14 23.42,-23.38 z m -205.34,217.91 c -36.84,-13.33 -63.68,-30.29 -83.49,-48.33 -6.62,15.5 -7.75,31.32 -1.41,47.17 18.87,47.17 33.02,89.62 89.61,150.93 27.89,30.21 40.82,83.34 38.93,139.04 78.88,-68.5 72.17,-246.92 -43.64,-288.81 z M 6089.97,2059.34 c 117.91,-56.6 353.73,-179.23 561.25,-216.96 207.53,-37.73 245.26,-103.76 254.69,-150.92 9.43,-47.17 -14.15,-56.6 37.73,-89.61 51.88,-33.02 80.18,-33.02 56.6,-117.92 -23.58,-84.89 -66.03,-207.52 51.88,-235.82 117.91,-28.29 146.21,193.38 141.49,287.71 -4.71,94.32 117.91,202.8 84.9,273.55 -33.02,70.74 -37.73,99.04 -132.06,99.04 -94.33,0 -99.05,9.44 -183.94,42.45 -84.9,33.02 -231.11,113.19 -297.14,179.22 -66.03,66.03 -202.8,103.76 -146.21,113.2 56.6,9.43 155.64,0 240.54,23.58 84.9,23.58 245.25,75.46 245.25,75.46 0,0 155.65,-193.37 169.8,-278.27 14.15,-84.89 202.8,-235.82 240.53,-339.58 37.73,-103.76 70.75,-141.49 212.24,-198.09 141.49,-56.59 264.12,-240.54 344.3,-311.28 80.18,-70.75 231.1,-221.67 226.39,-268.838 -4.72,-47.16 -18.87,-66.032 47.16,-127.34 66.03,-61.313 56.6,-221.672 -23.58,-282.992 -80.18,-61.309 0,-127.34 136.78,-94.321 136.77,33.012 174.5,165.071 165.07,273.551 -9.43,108.481 144.23,330.15 1.37,353.73 -142.86,23.58 -199.46,-4.72 -256.06,141.49 -56.59,146.21 -99.04,410.33 -330.14,509.38 -231.11,99.04 -249.98,146.2 -259.41,245.25 -9.43,99.04 -141.49,268.83 -134.42,403.25 7.08,134.42 120.27,417.41 -198.09,573.05 -233.46,120.27 -79.9,311.28 -78.86,431.55 1.04,120.27 13.11,290.06 0,360.81 -13.11,70.74 121.31,-212.24 114.24,-332.51 -7.08,-120.27 37.73,-271.2 9.43,-332.51 -28.3,-61.31 -4.72,-132.06 28.3,-89.61 0,0 61.31,28.3 80.18,-28.3 18.86,-56.6 108.48,-99.04 202.8,-56.6 94.33,42.45 -70.74,18.87 -103.76,103.76 -33.01,84.9 14.15,155.65 -37.73,226.39 -51.88,70.75 -56.6,4.72 -47.16,132.06 9.43,127.35 18.86,415.05 -28.3,509.38 -7.43,14.86 -19.56,29.32 -34.42,43.37 4.77,58.38 -19.82,100.48 -19.82,100.48 99.04,-28.3 150.92,66.03 150.92,66.03 -80.17,-49.53 -242.89,14.15 -221.67,115.55 21.23,101.4 110.84,224.03 -25.94,349.01 -50.65,46.29 -107.33,71.82 -158.66,85.71 -14.83,34.37 -44.68,58.14 -79.51,58.14 -3.54,0 -6.9,-0.76 -10.33,-1.23 -62.69,65.82 -141.5,106.85 -246.72,102.64 -117.91,-4.72 -228.75,-87.26 -245.25,-158 -16.51,-70.75 16.5,-209.88 -23.59,-261.76 -40.09,-51.89 -25.94,-54.24 16.51,-80.18 42.45,-25.94 35.37,-35.38 28.3,-63.68 -7.07,-28.29 -58.96,-80.17 -7.07,-103.76 51.88,-23.58 160.35,-40.09 160.35,-40.09 37.74,-4.71 89.62,-124.98 28.3,-179.22 -61.31,-54.24 -153.28,-73.1 -162.72,-238.18 -6.35,-111.28 94.33,-155.64 106.12,-224.03 11.8,-68.39 -4.71,-58.95 -54.23,-77.82 -49.53,-18.86 -176.87,58.96 -240.54,117.91 -63.67,58.96 -134.42,75.46 -146.21,127.34 -11.79,51.88 -21.22,202.81 37.73,231.11 58.96,28.3 11.79,63.67 -33.01,40.09 -44.81,-23.58 -37.74,-63.67 -61.32,-68.39 -23.58,-4.72 -94.32,80.18 -117.91,61.31 -23.58,-18.86 -16.51,-30.65 -16.51,-30.65 0,0 -33.01,16.5 -44.8,-4.72 -11.79,-21.22 0,-42.45 0,-42.45 0,0 -28.3,14.15 -40.09,-4.71 -11.79,-18.87 0,-37.74 0,-37.74 0,0 -25.94,9.44 -23.58,-16.5 2.36,-25.94 58.95,-165.08 136.77,-191.02 42.45,-11.79 146.21,-148.56 146.21,-148.56 0,0 323.08,-259.41 377.32,-294.78 54.24,-35.37 96.68,-35.37 106.11,-75.46 9.44,-40.09 30.66,-186.3 -2.35,-216.96 -33.02,-30.65 -167.44,-40.09 -323.08,-99.04 -155.64,-58.96 -412.68,-240.54 -469.28,-391.47 -56.6,-150.92 0,-198.08 117.91,-254.68"
         style="fill:#231f20;fill-opacity:1;fill-rule:nonzero;stroke:none"
         id="path80"
         inkscape:connector-curvature="0" /><path
         d="m 11652.1,8328.54 c -46,37.21 -129.7,122.26 -106.3,234.12 0,0 53.1,-176.99 162.8,-173.46 0,0 -222.1,304.78 -68.1,385.15 3.9,-5.11 8.2,-9.87 13,-14.42 5.4,-92.73 46.5,-174.24 101,-208.01 74.3,-45.99 -14.1,-127.34 -14.1,-127.34 0,0 -28.2,-54.58 -88.3,-96.04 z m 792.2,-3079.62 c 3.6,137.95 -35.4,60.13 -31.8,201.63 3.5,141.49 95.5,364.34 162.7,537.67 67.2,173.33 191,229.92 187.5,403.25 -3.6,173.33 -371.4,360.81 -470.5,431.55 -99,70.75 -258.2,49.53 -251.1,166.26 7,116.73 -38.9,234.64 17.7,340.76 56.6,106.12 41.2,130.88 37.7,212.24 -1.9,42.49 89.7,142.51 127.6,194.85 35.3,-67.64 81.2,-148.3 107.1,-164.2 46,-28.29 137.9,-31.83 173.3,35.38 35.3,67.21 74.2,130.88 84.9,208.7 10.6,77.82 81.3,191.01 102.5,254.68 21.3,63.68 -10.6,74.29 -21.2,127.35 -10.6,53.06 -56.6,3.54 -99,38.06 -42.5,34.52 -88.5,25.61 -88.7,-27.45 -0.2,-53.06 3.8,-113.19 -35.1,-63.02 -53.1,110.32 -127.4,94.86 -123.8,59.48 3.5,-35.37 56.5,-31.83 67.2,-84.89 10.6,-53.06 45.9,-130.88 77.8,-169.79 31.8,-38.91 7.1,-91.97 -53.1,-81.36 -60.1,10.61 -155.6,229.92 -208.7,367.03 -17.6,45.5 -50.5,81.27 -86.4,108.99 39.7,-4.43 75.9,-6.25 86.4,25.43 14.2,42.44 31.9,81.35 17.7,120.27 -14.1,38.91 21.2,84.89 21.2,84.89 0,0 60.2,-14.15 56.6,24.76 -3.5,38.91 -74.3,95.51 -60.1,169.79 14.1,74.29 42.4,293.6 -300.7,304.21 -108.5,3.36 -207,-54.83 -255.8,-149.3 -20,-10.18 -36.2,-24.26 -47.7,-40.68 -70.4,-6.73 -173.4,-29.41 -209.4,-103.61 -56.6,-116.74 -141.5,-169.8 -208.7,-145.03 0,0 17.7,-60.14 95.5,-45.99 0,0 -77.8,-56.6 -95.5,-173.33 -17.7,-116.73 -155.6,-148.57 -219.3,-102.58 0,0 208.7,-162.72 286.5,21.22 77.8,183.94 116.8,176.87 116.8,176.87 0,0 -90.3,-141.04 -38.3,-277.19 -92.5,-8.83 -166.7,-13.5 -234.1,-43.86 -70.8,-31.83 -240.6,-42.44 -279.5,-106.12 -38.9,-63.67 -14.1,-215.77 0,-300.67 14.2,-84.89 3.6,-321.89 60.2,-389.1 56.6,-67.21 -17.7,-120.27 38.9,-191.02 56.6,-70.74 81.3,-74.28 81.3,-120.27 0,-45.98 49.6,-35.37 60.2,0 0,0 53,-35.37 60.1,31.84 0,0 53.1,-7.07 53.1,60.13 0,0 35.3,24.77 7,77.83 -28.3,53.06 56.6,-24.77 116.8,31.83 28.3,35.37 -127.4,28.3 -187.5,56.6 -60.1,28.3 -92,42.45 -84.9,127.34 7.1,84.9 -31.8,258.23 -10.6,325.43 21.2,67.21 -21.2,134.42 60.1,145.03 81.4,10.62 192.2,47.17 263,40.09 70.7,-7.07 174.5,-38.91 202.8,-99.04 28.3,-60.14 -59,-517.63 -83.8,-652.05 -10.6,-88.43 -183.9,-123.8 -233.4,-272.37 -49.5,-148.57 84.9,-272.37 56.6,-424.48 -28.3,-152.1 -63.7,-282.98 -141.5,-325.43 -77.8,-42.45 -134.4,-14.15 -283,-74.28 -148.6,-60.14 -208.7,-145.03 -325.4,-208.7 -116.8,-63.68 -162.7,-102.59 -233.5,-77.83 -70.7,24.77 -63.7,81.36 -152.1,88.44 -88.4,7.07 -88.4,7.07 -120.3,-24.76 -31.8,-31.84 10.6,-141.5 -35.3,-279.45 -46.02,-137.96 -92.01,-155.64 -81.4,-237 10.62,-81.36 17.69,-166.25 95.5,-162.72 77.8,3.54 70.8,194.55 155.7,247.61 84.8,53.06 127.3,42.45 176.8,56.6 49.5,14.15 -31.8,56.6 3.6,84.9 35.3,28.3 148.5,74.28 240.5,102.58 92,28.3 336,159.18 530.6,152.1 194.5,-7.07 237,-7.07 332.5,134.42 95.5,141.49 283,385.57 353.7,431.55 70.8,45.99 148.6,3.54 261.8,-21.22 113.2,-24.76 258.2,-84.9 244.1,-173.33 -14.2,-88.43 -99.1,-212.24 -67.2,-442.16 31.8,-229.93 -46,-350.2 -102.6,-385.57 -56.6,-35.37 -145.1,-56.6 -166.3,-145.03 -3.5,-42.45 162.7,-60.13 229.9,-152.1 67.3,-91.97 138,-152.11 222.9,-173.33 84.9,-21.23 194.5,-38.91 233.5,17.68 38.9,56.6 -244.1,145.03 -240.6,282.99"
         style="fill:#231f20;fill-opacity:1;fill-rule:nonzero;stroke:none"
         id="path82"
         inkscape:connector-curvature="0" /><path
         d="m 11603.1,4874.81 c 25.2,-24.06 38.9,-28.3 21.2,-67.21 -17.7,-38.91 10.6,-77.82 42.4,-120.27 31.9,-42.45 -31.8,-91.97 0,-116.73 31.9,-24.76 63.7,-49.52 60.2,-77.82 -3.6,-28.3 -46,-53.06 -46,-53.06 0,0 -31.1,-7.01 -15.8,-49.52 8.1,-22.54 33.7,-38.92 0,-74.29 -33.7,-35.37 -111.6,28.3 -129.3,3.54 -17.6,-24.76 -14.1,-56.6 39,-81.36 53,-24.76 120.8,-42.45 152.3,-127.34 31.6,-84.9 6.8,-116.73 31.6,-180.41 24.8,-63.67 21.2,-95.5 56.6,-49.52 35.4,45.99 31.8,70.75 21.2,137.96 -10.6,67.21 3.6,95.51 28.3,137.95 24.8,42.45 35.4,70.75 88.4,56.6 53.1,-14.15 60.2,0 77.9,-49.52 17.7,-49.52 60.1,-28.3 67.2,-95.51 7.1,-67.21 -14.2,-127.34 -70.8,-180.4 -56.6,-53.06 -116.7,-155.64 -145,-222.85 -28.3,-67.21 -141.5,-123.81 -145,-208.71 -3.6,-84.89 -31.9,-399.71 -14.2,-488.14 17.7,-88.44 95.5,-95.51 194.6,-152.11 99,-56.6 226.4,-116.73 314.8,-191.01 88.4,-74.29 155.6,-145.03 187.5,-229.93 31.8,-84.89 -3.6,-102.58 -24.8,-162.72 -21.2,-60.13 -205.2,-148.56 -268.8,-169.79 -63.7,-21.22 -141.5,-45.98 -233.5,-70.74 -92,-24.76 -169.8,-70.75 -212.2,-116.73 -42.5,-45.99 -81.4,-81.36 -92,-109.66 -10.6,-28.3 60.1,21.22 53.1,-21.22 -7.1,-42.45 -96.7,-70.75 -90.8,-141.5 5.9,-70.74 -26,-201.62 20,-247.61 46,-45.98 -17.7,-84.89 -74.3,-88.43 -56.6,-3.54 -130.8,60.13 -141.5,152.1 -10.6,91.97 31.9,180.41 0,237 -31.8,56.6 -130.8,183.94 -113.2,240.54 17.7,56.6 123.9,109.66 198.1,109.66 74.3,0 92,38.91 141.5,88.43 49.6,49.52 120.3,116.73 176.9,152.1 56.6,35.38 183.9,77.82 116.7,88.44 -67.2,10.61 -162.7,-10.62 -244,7.07 -81.4,17.69 -145.1,127.34 -198.1,109.66 -53.1,-17.69 -123.8,-148.57 -152.1,-229.93 -28.3,-81.36 -187.5,-339.58 -226.4,-417.4 -38.9,-77.82 -92,-130.88 -201.7,-176.87 -109.6,-45.98 -254.6,-251.14 -311.2,-311.28 -56.6,-60.13 -148.6,-183.94 -145.1,-251.15 3.6,-67.21 31.9,-3.54 35.4,-56.6 3.5,-53.059 -60.3,-113.188 -35.5,-180.399 24.9,-67.211 53.2,-95.512 102.7,-109.66 49.5,-14.141 31.8,-74.281 -7.1,-99.039 -38.9,-24.762 -254.7,-35.371 -290,70.75 -35.4,106.117 -17.7,169.789 -49.5,237 -31.9,67.199 -81.4,95.498 -67.3,191.008 14.2,77.82 145.1,56.6 205.2,155.64 60.1,99.05 49.5,219.32 120.3,325.44 70.7,106.11 120.2,159.17 215.8,212.23 95.5,53.06 141.4,109.66 166.2,212.24 24.8,102.59 70.8,325.44 116.7,424.48 46,99.05 3.6,261.76 14.2,396.18 10.6,134.42 92,229.93 134.4,328.97 42.5,99.04 56.6,141.49 24.8,251.15 -31.9,109.66 -49.6,268.83 -88.5,371.42 -38.9,102.58 -31.8,162.71 10.6,233.46 42.5,70.75 92,155.64 166.3,212.24 74.3,56.6 77.8,70.74 49.5,141.49 -28.3,70.75 -116.7,81.36 -113.2,240.54 3.6,159.18 77.5,233.46 150.2,272.37 72.7,38.91 267.2,53.06 345.1,-21.22"
         style="fill:#231f20;fill-opacity:1;fill-rule:nonzero;stroke:none"
         id="path84"
         inkscape:connector-curvature="0" /><path
         d="m 3320.5,4593.76 c 31.84,-35.37 31.84,-84.89 35.38,-123.8 3.54,-38.91 0,-74.28 35.37,-113.19 35.37,-38.92 -24.76,-77.83 -35.37,-109.66 -10.61,-31.84 -28.3,-42.45 -14.15,-91.97 14.15,-49.52 17.69,-60.14 -21.23,-88.43 -38.91,-28.3 -45.57,-31.84 40.89,-31.84 86.46,0 203.19,-67.21 203.19,-67.21 0,0 102.58,-106.12 109.66,-205.16 7.07,-99.05 42.59,-99.05 120.34,-148.57 77.75,-49.52 70.67,-88.43 166.18,-77.82 95.51,10.61 99.04,-10.61 120.27,42.45 21.22,53.06 63.67,130.88 102.58,159.17 38.91,28.3 49.52,35.38 67.21,7.08 17.68,-28.3 42.45,56.6 99.04,42.45 56.6,-14.15 70.75,-28.3 60.14,-74.29 -10.61,-45.98 -49.53,-56.59 -77.82,-91.97 -28.3,-35.37 28.29,24.77 53.06,0 24.76,-24.76 -91.97,-86.65 -91.97,-86.65 l -162.72,-111.44 c 0,0 -127.34,-91.97 -187.48,-127.34 -60.13,-35.37 -162.71,-28.3 -237,91.97 -74.28,120.27 -180.4,201.63 -191.01,244.08 -10.61,42.44 -60.14,63.67 -49.53,-7.08 10.62,-70.74 0,-228.24 -21.22,-347.58 -21.22,-119.34 -77.82,-356.34 -81.36,-455.39 -3.53,-99.04 -84.89,-268.83 -45.98,-339.58 38.91,-70.75 226.39,-438.63 328.97,-534.14 102.58,-95.5 7.07,-261.76 31.83,-371.41 24.76,-109.66 77.82,-247.61 99.05,-385.57 21.22,-137.96 56.6,-261.761 145.03,-325.429 88.43,-63.671 141.49,-116.73 265.3,-102.582 123.8,14.141 191.01,45.981 183.94,-28.3 -7.08,-74.289 -102.59,-166.258 -180.41,-198.09 -77.82,-31.84 -201.62,-21.227 -293.59,-17.688 -91.97,3.539 -102.59,21.219 -137.96,120.27 -35.37,99.039 -3.54,113.191 -63.67,219.308 -60.13,106.121 -176.87,325.441 -226.39,456.321 -49.52,130.88 -45.98,240.53 -35.37,328.97 10.61,88.43 -113.2,141.49 -155.64,198.09 -42.45,56.59 -95.51,141.49 -145.03,109.65 -49.53,-31.83 -212.24,-367.88 -290.06,-413.86 -77.82,-45.99 -169.79,-28.3 -307.75,81.35 -137.95,109.66 -314.82,208.71 -392.64,247.62 -77.82,38.91 -205.16,106.12 -254.69,91.97 -49.52,-14.15 -14.15,-77.82 -70.74,-74.29 -56.6,3.54 -95.51,99.05 -222.85,42.45 -127.35,-56.6 -159.18,-109.66 -194.56,-70.74 -35.37,38.9 17.69,152.1 91.97,201.62 74.29,49.52 113.2,56.6 176.87,120.27 63.67,63.67 109.66,159.18 176.87,120.27 67.2,-38.91 60.13,-109.66 102.58,-145.03 42.45,-35.37 123.8,-49.52 219.31,-60.14 95.51,-10.61 237,-31.83 307.75,-67.2 70.74,-35.38 130.88,-113.2 183.94,-137.96 53.06,-24.76 67.21,99.05 60.13,194.55 -7.07,95.51 63.67,134.42 56.6,198.09 -7.08,63.67 -74.28,173.33 -74.28,237 0,63.67 7.07,134.42 -24.77,123.81 -31.83,-10.61 21.23,-109.66 -17.68,-145.03 -38.91,-35.37 -42.45,-116.73 -99.05,-60.14 -56.59,56.6 -102.58,77.83 -113.19,180.41 -10.61,102.58 -3.54,166.25 -63.67,265.3 -60.14,99.04 -95.51,187.47 -120.27,300.67 -24.76,113.19 -84.9,198.09 0,261.76 84.89,63.67 212.24,191.01 258.22,240.54 45.99,49.52 21.23,159.17 95.51,191.01 74.28,31.84 77.82,3.54 145.03,38.91 67.21,35.37 69.85,88.43 139.28,120.27 69.42,31.84 80.03,38.91 65.88,120.27 -14.15,81.36 -67.21,95.51 -109.65,169.79 -42.45,74.28 -45.99,137.95 -24.76,212.24 21.22,74.28 137.95,159.18 215.77,166.25 77.82,7.08 187.48,-30.95 187.48,-30.95 l 84.89,-78.71"
         style="fill:#231f20;fill-opacity:1;fill-rule:nonzero;stroke:none"
         id="path86"
         inkscape:connector-curvature="0" /><path
         d="m 7322.79,422.992 c 8.46,0 16.24,-7.371 16.24,-7.371 l -139.45,-297.84 c -15.27,0 -51.92,-2.179 -60.87,-2.179 -8.44,0 -16.24,7.367 -16.24,7.367 l -47.68,297.851 c 28.92,0 65.08,2.172 75.91,2.172 8.48,0 16.24,-7.371 16.24,-7.371 l 14.58,-145.711 c 1.26,-12.551 1.35,-29.969 0.85,-48.32 4.69,20.031 9.84,38.992 14.89,51.789 l 57.97,147.473 c 25.71,0 57.62,2.14 67.53,2.14 h 0.03"
         style="fill:#967e72;fill-opacity:1;fill-rule:nonzero;stroke:none"
         id="path88"
         inkscape:connector-curvature="0" /><path
         d="m 7386.46,244.891 c 10.1,3.191 13.12,11.519 13.12,21.05 0,8.969 -2.9,22.379 -13.32,22.379 -18.76,0 -27.02,-30.289 -30.01,-53 z m 80.02,31.172 c 0,-32.442 -18.1,-53.872 -63.21,-63.172 l -47.33,-9.77 c 3.64,-20.402 16.45,-30.371 37.74,-30.371 26.07,0 43.52,19.68 43.52,19.68 0,0 13.3,-7.418 13.3,-22.649 0,-27.019 -41.44,-56.332 -89.64,-56.332 -48.9,0 -80.81,30.903 -80.81,83.082 0,60.282 42.71,142.051 118.72,142.051 41.63,0 67.71,-24.652 67.71,-62.519"
         style="fill:#967e72;fill-opacity:1;fill-rule:nonzero;stroke:none"
         id="path90"
         inkscape:connector-curvature="0" /><path
         d="m 7593.91,338.582 c 38.35,0 67.17,-20.32 67.17,-46.711 0,-33 -39.95,-45.058 -39.95,-45.058 0,0 -11.72,36.039 -38.58,36.039 -18.2,0 -28.68,-18.411 -28.68,-57.672 0,-36.16 9.52,-52.43 32.91,-52.43 24.01,0 38.78,16.352 38.78,16.352 0,0 13.32,-7.411 13.32,-22.223 0,-25.859 -39.8,-53.43 -86.14,-53.43 -49.34,0 -79.74,30.903 -79.74,82.274 0,61.09 43.67,142.859 120.94,142.859 h -0.03"
         style="fill:#967e72;fill-opacity:1;fill-rule:nonzero;stroke:none"
         id="path92"
         inkscape:connector-curvature="0" /><path
         d="m 7778.18,386.719 c 9.24,0 15.39,-7.047 15.39,-7.047 l -7.22,-45.43 h 48.12 l -10.85,-34.633 c -3.52,-11.148 -9.06,-17.308 -20.34,-17.308 h -25.14 l -14.02,-88.512 c -2.28,-14.309 0.84,-20.93 10.58,-21.039 8.85,-0.059 17.58,5.402 17.58,5.402 0,0 13.43,-7.48 13.43,-21.523 0,-21.668 -30.91,-43.18 -70.01,-43.18 -41.48,0 -58.21,25.383 -51.18,69.793 l 15.66,99.059 h -26.1 l 11.36,36.129 c 2.92,9.269 10.57,15.812 19.93,15.812 h 12.69 l 15.21,41.828 c 18.83,4.61 36.37,10.649 44.91,10.649"
         style="fill:#967e72;fill-opacity:1;fill-rule:nonzero;stroke:none"
         id="path94"
         inkscape:connector-curvature="0" /><path
         d="m 7931.82,244.891 c 10.09,3.191 13.12,11.519 13.12,21.05 0,8.969 -2.92,22.379 -13.32,22.379 -18.76,0 -27.05,-30.289 -30.02,-53 z m 80,31.172 c 0,-32.442 -18.09,-53.872 -63.2,-63.172 l -47.34,-9.77 c 3.66,-20.402 16.47,-30.371 37.73,-30.371 26.07,0 43.53,19.68 43.53,19.68 0,0 13.32,-7.418 13.32,-22.649 0,-27.019 -41.44,-56.332 -89.64,-56.332 -48.92,0 -80.81,30.903 -80.81,83.082 0,60.282 42.69,142.051 118.72,142.051 41.62,0 67.71,-24.652 67.71,-62.519 h -0.02"
         style="fill:#967e72;fill-opacity:1;fill-rule:nonzero;stroke:none"
         id="path96"
         inkscape:connector-curvature="0" /><path
         d="m 8124.89,244.891 c 10.09,3.191 13.12,11.519 13.12,21.05 0,8.969 -2.94,22.379 -13.32,22.379 -18.76,0 -27.05,-30.289 -30.03,-53 z m 79.99,31.172 c 0,-32.442 -18.09,-53.872 -63.19,-63.172 l -47.34,-9.77 c 3.64,-20.402 16.46,-30.371 37.73,-30.371 26.1,0 43.52,19.68 43.52,19.68 0,0 13.33,-7.418 13.33,-22.649 0,-27.019 -41.44,-56.332 -89.64,-56.332 -48.92,0 -80.83,30.903 -80.83,83.082 0,60.282 42.73,142.051 118.72,142.051 41.64,0 67.73,-24.652 67.73,-62.519 h -0.03"
         style="fill:#967e72;fill-opacity:1;fill-rule:nonzero;stroke:none"
         id="path98"
         inkscape:connector-curvature="0" /><path
         d="m 8362.82,195.199 c 0,0 16.28,-15.039 16.28,-39.898 0,-33.172 -28.09,-41.852 -51.63,-41.852 -30.67,0 -52.98,14.621 -76.32,22.512 -6.5,-7.5 -12.87,-15.02 -18.98,-22.512 0,0 -34.57,0.871 -34.57,24.422 0,28.719 47.86,77.969 99.44,133.777 -5.95,1.082 -11.65,1.813 -16.8,1.813 -29.32,0 -40.68,-14.652 -40.68,-14.652 0,0 -15.08,17.343 -13.81,39.91 1.71,31.293 31.47,39.863 54.84,39.863 24.78,0 42.97,-9.57 60.86,-17.41 l 14.52,17.41 c 0,0 34.88,-1.062 34.88,-24.742 0,-27.711 -46.33,-76.07 -96.41,-130.07 10.6,-2.961 20.46,-5.36 30.25,-5.36 25.98,0 38.13,16.789 38.13,16.789"
         style="fill:#967e72;fill-opacity:1;fill-rule:nonzero;stroke:none"
         id="path100"
         inkscape:connector-curvature="0" /><path
         d="M 8587.27,132.551 C 8574.83,56.7305 8522.86,18.1992 8457.08,18.1992 c -42,0 -73.35,22.0625 -73.35,47.6328 0,16.8672 14.04,24.6797 14.04,24.6797 0,0 14.28,-13 42.43,-13 26.41,0 62.21,11.2578 68.49,51.1093 l 4.94,31.02 c -17.72,-25.5 -41.24,-46.192 -70.94,-46.192 -33.38,0 -48.24,27.313 -39.45,82.801 l 9.5,60.07 c 5.84,36.789 7.44,66.801 7.44,66.801 23.75,4.391 55.07,15.461 66.03,15.461 8.49,0 16.36,-7.07 16.36,-7.07 l -11.89,-75.192 -11,-69.371 c -1.01,-6.386 0.2,-9.976 6,-9.976 27.66,0 43.26,79.347 43.26,79.347 5.81,36.789 7.43,66.801 7.43,66.801 23.72,4.391 55.05,15.461 66.01,15.461 8.5,0 16.38,-7.07 16.38,-7.07 l -11.91,-75.192 -19.58,-123.769"
         style="fill:#967e72;fill-opacity:1;fill-rule:nonzero;stroke:none"
         id="path102"
         inkscape:connector-curvature="0" /><path
         d="M 5421.98,292.301 V 158.672 h 30.41 c 11.38,0 19.59,0.641 24.64,1.918 6.6,1.652 12.08,4.449 16.44,8.402 4.36,3.938 7.91,10.43 10.67,19.477 2.75,9.023 4.13,21.351 4.13,36.941 0,15.602 -1.38,27.57 -4.13,35.922 -2.76,8.348 -6.61,14.867 -11.56,19.547 -4.96,4.672 -11.24,7.84 -18.86,9.492 -5.69,1.289 -16.83,1.93 -33.44,1.93 z m -40.74,34.129 h 74.45 c 16.79,0 29.59,-1.289 38.4,-3.848 11.84,-3.492 21.97,-9.684 30.42,-18.59 8.44,-8.89 14.86,-19.801 19.26,-32.672 4.41,-12.91 6.61,-28.8 6.61,-47.699 0,-16.601 -2.07,-30.922 -6.19,-42.941 -5.05,-14.68 -12.25,-26.559 -21.61,-35.641 -7.06,-6.879 -16.61,-12.25 -28.63,-16.098 -8.99,-2.851 -21.01,-4.269 -36.05,-4.269 h -76.66 V 326.43"
         style="fill:#967e72;fill-opacity:1;fill-rule:nonzero;stroke:none"
         id="path104"
         inkscape:connector-curvature="0" /><path
         d="m 5665.85,210.27 c -0.27,11.199 -3.16,19.699 -8.67,25.539 -5.5,5.812 -12.2,8.73 -20.09,8.73 -8.44,0 -15.42,-3.07 -20.92,-9.219 -5.5,-6.148 -8.21,-14.5 -8.12,-25.05 z m -2.2,-39.079 38.54,-6.472 c -4.96,-14.129 -12.78,-24.887 -23.47,-32.278 -10.69,-7.39 -24.06,-11.07 -40.12,-11.07 -25.41,0 -44.22,8.301 -56.42,24.91 -9.64,13.301 -14.45,30.09 -14.45,50.367 0,24.223 6.33,43.184 18.99,56.903 12.66,13.719 28.67,20.578 48.03,20.578 21.74,0 38.9,-7.188 51.47,-21.527 12.57,-14.372 18.58,-36.36 18.03,-66 h -96.89 c 0.28,-11.473 3.4,-20.403 9.36,-26.762 5.96,-6.391 13.4,-9.57 22.3,-9.57 6.05,0 11.14,1.652 15.27,4.96 4.13,3.301 7.25,8.622 9.36,15.961"
         style="fill:#967e72;fill-opacity:1;fill-rule:nonzero;stroke:none"
         id="path106"
         inkscape:connector-curvature="0" /><path
         d="m 5716.5,166.371 38.81,5.918 c 1.65,-7.519 5,-13.238 10.04,-17.129 5.05,-3.91 12.12,-5.847 21.2,-5.847 10,0 17.52,1.828 22.57,5.5 3.39,2.566 5.09,6.007 5.09,10.316 0,2.941 -0.92,5.371 -2.75,7.301 -1.93,1.832 -6.24,3.531 -12.94,5.09 -31.19,6.882 -50.96,13.171 -59.31,18.851 -11.56,7.891 -17.34,18.859 -17.34,32.899 0,12.66 5,23.3 15,31.921 10,8.629 25.5,12.938 46.51,12.938 20,0 34.87,-3.258 44.59,-9.77 9.73,-6.507 16.43,-16.148 20.1,-28.898 l -36.47,-6.742 c -1.56,5.683 -4.52,10.043 -8.88,13.07 -4.36,3.031 -10.57,4.543 -18.65,4.543 -10.18,0 -17.48,-1.422 -21.88,-4.262 -2.94,-2.019 -4.4,-4.64 -4.4,-7.851 0,-2.75 1.28,-5.09 3.85,-7.02 3.49,-2.57 15.53,-6.187 36.12,-10.867 20.6,-4.684 34.98,-10.41 43.15,-17.203 8.07,-6.887 12.11,-16.469 12.11,-28.77 0,-13.386 -5.6,-24.91 -16.79,-34.539 -11.19,-9.629 -27.75,-14.449 -49.68,-14.449 -19.91,0 -35.67,4.039 -47.27,12.109 -11.61,8.071 -19.2,19.04 -22.78,32.891"
         style="fill:#967e72;fill-opacity:1;fill-rule:nonzero;stroke:none"
         id="path108"
         inkscape:connector-curvature="0" /><path
         d="m 5881.24,124.672 v 146.16 h 38.67 v -146.16 z m 0,165.98 v 35.778 h 38.67 v -35.778 h -38.67"
         style="fill:#967e72;fill-opacity:1;fill-rule:nonzero;stroke:none"
         id="path110"
         inkscape:connector-curvature="0" /><path
         d="m 5984.88,200.781 c 0,-15.511 3,-26.871 9.01,-34.062 6.01,-7.207 13.42,-10.809 22.23,-10.809 9.45,0 17.43,3.692 23.95,11.09 6.51,7.371 9.77,18.32 9.77,32.813 0,15.136 -3.12,26.378 -9.36,33.718 -6.24,7.34 -14.13,11.008 -23.67,11.008 -9.27,0 -16.91,-3.609 -22.92,-10.809 -6.01,-7.199 -9.01,-18.179 -9.01,-32.949 z m -34.54,-85.742 44.17,-5.367 c 0.74,-5.141 2.44,-8.672 5.1,-10.6017 3.67,-2.75 9.45,-4.1211 17.34,-4.1211 10.09,0 17.66,1.5117 22.7,4.543 3.4,2.0198 5.97,5.2698 7.71,9.7698 1.19,3.207 1.79,9.129 1.79,17.75 v 21.328 c -11.56,-15.781 -26.15,-23.668 -43.76,-23.668 -19.64,0 -35.19,8.308 -46.66,24.91 -8.99,13.117 -13.49,29.449 -13.49,49 0,24.488 5.9,43.207 17.69,56.148 11.79,12.93 26.45,19.399 43.97,19.399 18.07,0 32.98,-7.93 44.73,-23.809 v 20.512 h 36.19 v -131.16 c 0,-17.25 -1.42,-30.141 -4.26,-38.672 -2.85,-8.5312 -6.84,-15.2305 -11.98,-20.0898 -5.14,-4.8711 -11.99,-8.668 -20.57,-11.418 -8.58,-2.7617 -19.43,-4.1328 -32.55,-4.1328 -24.77,0 -42.34,4.25 -52.71,12.7304 -10.37,8.4922 -15.55,19.2422 -15.55,32.2692 0,1.282 0.04,2.84 0.14,4.68"
         style="fill:#967e72;fill-opacity:1;fill-rule:nonzero;stroke:none"
         id="path112"
         inkscape:connector-curvature="0" /><path
         d="m 6253.39,124.672 h -38.67 v 74.59 c 0,15.789 -0.83,25.98 -2.48,30.617 -1.65,4.633 -4.33,8.242 -8.05,10.812 -3.72,2.571 -8.19,3.848 -13.42,3.848 -6.7,0 -12.7,-1.828 -18.03,-5.5 -5.32,-3.668 -8.96,-8.539 -10.94,-14.59 -1.97,-6.058 -2.96,-17.25 -2.96,-33.578 v -66.199 h -38.67 v 146.16 h 35.92 v -21.473 c 12.75,16.512 28.81,24.77 48.17,24.77 8.53,0 16.33,-1.539 23.4,-4.617 7.06,-3.071 12.4,-6.981 16.03,-11.762 3.62,-4.77 6.15,-10.18 7.57,-16.238 1.42,-6.051 2.13,-14.723 2.13,-26.012 v -90.828"
         style="fill:#967e72;fill-opacity:1;fill-rule:nonzero;stroke:none"
         id="path114"
         inkscape:connector-curvature="0" /><path
         d="m 6373.81,210.27 c -0.27,11.199 -3.16,19.699 -8.67,25.539 -5.5,5.812 -12.2,8.73 -20.09,8.73 -8.44,0 -15.42,-3.07 -20.92,-9.219 -5.51,-6.148 -8.21,-14.5 -8.12,-25.05 z m -2.2,-39.079 38.53,-6.472 c -4.95,-14.129 -12.77,-24.887 -23.46,-32.278 -10.69,-7.39 -24.06,-11.07 -40.12,-11.07 -25.41,0 -44.22,8.301 -56.42,24.91 -9.64,13.301 -14.45,30.09 -14.45,50.367 0,24.223 6.33,43.184 18.99,56.903 12.66,13.719 28.67,20.578 48.03,20.578 21.74,0 38.9,-7.188 51.47,-21.527 12.57,-14.372 18.58,-36.36 18.03,-66 h -96.89 c 0.28,-11.473 3.4,-20.403 9.36,-26.762 5.96,-6.391 13.4,-9.57 22.3,-9.57 6.05,0 11.14,1.652 15.27,4.96 4.13,3.301 7.25,8.622 9.36,15.961"
         style="fill:#967e72;fill-opacity:1;fill-rule:nonzero;stroke:none"
         id="path116"
         inkscape:connector-curvature="0" /><path
         d="m 6468.92,200.91 c 0,-15.59 2.15,-26.879 6.47,-33.851 6.23,-10.086 14.95,-15.137 26.14,-15.137 8.9,0 16.47,3.789 22.71,11.348 6.24,7.582 9.36,18.882 9.36,33.929 0,16.793 -3.03,28.871 -9.08,36.262 -6.06,7.379 -13.81,11.078 -23.26,11.078 -9.18,0 -16.86,-3.648 -23.05,-10.93 -6.2,-7.308 -9.29,-18.199 -9.29,-32.699 z m 103.22,-76.238 h -35.92 v 21.469 c -5.97,-8.352 -13.01,-14.571 -21.13,-18.649 -8.12,-4.07 -16.31,-6.121 -24.57,-6.121 -16.79,0 -31.17,6.758 -43.14,20.309 -11.97,13.511 -17.96,32.402 -17.96,56.621 0,24.769 5.83,43.601 17.48,56.5 11.65,12.879 26.38,19.328 44.17,19.328 16.34,0 30.47,-6.789 42.39,-20.367 v 72.668 h 38.68 V 124.672"
         style="fill:#967e72;fill-opacity:1;fill-rule:nonzero;stroke:none"
         id="path118"
         inkscape:connector-curvature="0" /><path
         d="m 6714.03,200.91 c 0,-15.129 2.39,-26.328 7.16,-33.57 6.7,-10.281 15.6,-15.418 26.7,-15.418 8.53,0 15.8,3.641 21.81,10.949 6.01,7.281 9.02,18.777 9.02,34.469 0,16.699 -3.03,28.73 -9.09,36.121 -6.05,7.379 -13.81,11.078 -23.26,11.078 -9.26,0 -16.97,-3.609 -23.12,-10.809 -6.14,-7.199 -9.22,-18.128 -9.22,-32.82 z m -38.39,-76.238 V 326.43 h 38.67 v -72.668 c 11.93,13.578 26.05,20.367 42.39,20.367 17.8,0 32.52,-6.449 44.17,-19.328 11.66,-12.899 17.48,-31.41 17.48,-55.539 0,-24.949 -5.94,-44.172 -17.82,-57.66 -11.88,-13.493 -26.31,-20.231 -43.28,-20.231 -8.35,0 -16.59,2.09 -24.71,6.27 -8.12,4.16 -15.11,10.339 -20.98,18.5 v -21.469 h -35.92"
         style="fill:#967e72;fill-opacity:1;fill-rule:nonzero;stroke:none"
         id="path120"
         inkscape:connector-curvature="0" /><path
         d="m 6825.52,270.832 h 41.14 l 34.96,-103.773 34.13,103.773 h 40.05 l -51.61,-140.652 -9.22,-25.461 c -3.39,-8.5393 -6.63,-15.0471 -9.7,-19.5471 -3.07,-4.4922 -6.61,-8.1328 -10.6,-10.9297 -3.99,-2.8008 -8.9,-4.9805 -14.72,-6.543 -5.83,-1.5586 -12.41,-2.3398 -19.75,-2.3398 -7.44,0 -14.73,0.7812 -21.88,2.3398 l -3.45,30.2696 c 6.06,-1.1875 11.52,-1.7891 16.38,-1.7891 8.99,0 15.64,2.6523 19.96,7.9103 4.31,5.289 7.61,12 9.91,20.172 l -55.6,146.57"
         style="fill:#967e72;fill-opacity:1;fill-rule:nonzero;stroke:none"
         id="path122"
         inkscape:connector-curvature="0" /></g></g></svg>