<?xml version="1.0" encoding="UTF-8" standalone="no"?>
<!-- Created with Inkscape (http://www.inkscape.org/) -->

<svg
   xmlns:dc="http://purl.org/dc/elements/1.1/"
   xmlns:cc="http://creativecommons.org/ns#"
   xmlns:rdf="http://www.w3.org/1999/02/22-rdf-syntax-ns#"
   xmlns:svg="http://www.w3.org/2000/svg"
   xmlns="http://www.w3.org/2000/svg"
   xmlns:sodipodi="http://sodipodi.sourceforge.net/DTD/sodipodi-0.dtd"
   xmlns:inkscape="http://www.inkscape.org/namespaces/inkscape"
   width="172.41364mm"
   height="163.87694mm"
   viewBox="0 0 172.41364 163.87694"
   version="1.1"
   id="svg4334"
   inkscape:version="0.92+devel unknown"
   sodipodi:docname="swin.svg">
  <defs
     id="defs4328" />
  <sodipodi:namedview
     id="base"
     pagecolor="#ffffff"
     bordercolor="#666666"
     borderopacity="1.0"
     inkscape:pageopacity="0.0"
     inkscape:pageshadow="2"
     inkscape:zoom="0.82"
     inkscape:cx="23.494788"
     inkscape:cy="376.49829"
     inkscape:document-units="mm"
     inkscape:current-layer="layer1"
     inkscape:document-rotation="0"
     showgrid="false"
     inkscape:window-width="1920"
     inkscape:window-height="1016"
     inkscape:window-x="0"
     inkscape:window-y="0"
     inkscape:window-maximized="1" />
  <metadata
     id="metadata4331">
    <rdf:RDF>
      <cc:Work
         rdf:about="">
        <dc:format>image/svg+xml</dc:format>
        <dc:type
           rdf:resource="http://purl.org/dc/dcmitype/StillImage" />
        <dc:title />
      </cc:Work>
    </rdf:RDF>
  </metadata>
  <g
     inkscape:label="Calque 1"
     inkscape:groupmode="layer"
     id="layer1"
     transform="translate(-24.16206,-49.97675)">
    <g
       transform="matrix(0.21166666,0,0,0.21166666,-86.333689,83.609726)"
       id="g12">
      <path
         d="m 645.36863,318.52809 c 0,0 0.86932,-2.496 2.49068,-7.168 1.75464,-4.61332 4.4,-11.53064 9.01332,-19.68532 4.53868,-8.18668 10.96,-17.83468 20.32,-27.33868 9.22132,-9.59464 21.552,-18.86932 36.69332,-25.87732 15.09336,-7.056 32.976,-11.712 52.32536,-12.25064 9.66932,-0.2988 19.69064,0.3412 30.01064,2.63464 5.12,1.104 10.50136,2.90132 15.63736,5.37068 4.17064,1.96264 9.23732,4.544 13.632,7.088 18.05864,10.256 34.78932,23.056 50.85864,36.06932 16.128,12.944 32.22932,25.62668 49.41868,35.15732 8.55468,4.79468 17.38668,8.82136 26.50668,11.552 8.96532,2.74136 18.77864,4.48536 27.57332,4.82668 l 7.74932,0.16 c 2.59736,0.0908 4.544,-0.1652 6.848,-0.2028 2.19732,0 4.49068,-0.2988 6.77865,-0.592 2.288,-0.24 4.5653,-0.51732 6.7733,-1.04532 8.9281,-1.696 17.4294,-4.72536 25.456,-8.84268 16.0054,-8.34668 30.5707,-20.24 44.6027,-31.60532 6.992,-5.62132 14.016,-11.40268 21.2267,-16.40532 7.584,-5.25336 15.344,-9.32268 23.3546,-12.304 15.9734,-6.12268 32.4214,-5.92536 45.4827,-2.56536 13.2214,3.35468 23.216,9.648 30.7894,15.13068 7.536,5.632 12.656,10.896 16.0746,14.47464 3.3974,3.62136 5.0614,5.67468 5.0614,5.67468 0,0 -2.0107,-1.72268 -5.9147,-4.736 -3.856,-3.04532 -9.744,-7.264 -17.6214,-11.71732 -7.8826,-4.384 -18.0693,-8.66668 -30.064,-10.46932 -11.984,-1.79736 -25.7013,-0.0852 -38.9066,6.12264 -6.5654,3.088 -13.152,7.29068 -19.1627,12.272 -1.44,1.12 -3.1467,2.69868 -4.752,4.08 -1.5253,1.424 -3.0613,2.864 -4.624,4.31468 -3.2053,2.96 -6.464,5.968 -9.7707,9.01864 -6.6186,6.144 -13.504,12.54936 -20.992,18.89068 -7.4826,6.33068 -15.6053,12.68268 -24.9866,17.89868 -9.3067,5.28532 -19.712,9.52 -30.6347,12.05332 -2.7147,0.752 -5.4667,1.216 -8.24,1.632 -2.768,0.45868 -5.54133,0.928 -8.47997,1.08268 -2.82136,0.192 -6,0.54932 -8.55468,0.56 l -7.75464,-0.032 c -23.22668,-0.58668 -45.584,-7.6 -65.30668,-18.496 -19.68536,-10.912 -36.41068,-24.92268 -52.432,-38.00536 -16.05336,-13.05596 -31.136,-25.98932 -47.10932,-35.81864 -4.03736,-2.544 -7.62136,-4.57068 -12.11736,-6.928 -3.52532,-1.90932 -7.25864,-3.24268 -11.328,-4.48532 -8.08,-2.39468 -16.704,-3.58936 -25.09332,-3.88268 -16.84268,-0.528 -33.008,2.18132 -47.07732,7.10932 -14.01068,5.104 -26.128,12.13336 -35.728,19.91468 -9.58936,7.80268 -17.024,15.936 -22.512,23.14664 -5.472,7.25336 -9.33868,13.30668 -11.824,17.58936 -2.40536,4.32 -3.69068,6.62932 -3.69068,6.62932"
         style="fill:#100f0d;fill-opacity:1;fill-rule:nonzero;stroke:none;stroke-width:0.5333333"
         id="path14"
         inkscape:connector-curvature="0" />
      <path
         d="m 715.16063,310.59209 c 0,0 0.50132,-0.94932 1.44,-2.73064 0.48,-0.88536 1.05068,-1.97868 1.73332,-3.27468 0.67736,-1.29068 1.38668,-2.8 2.68268,-4.24532 1.216,-1.52536 2.56532,-3.21068 4.02668,-5.05068 1.616,-1.70132 3.66932,-3.21068 5.74932,-5.01868 2.10132,-1.78132 4.84268,-2.91732 7.536,-4.53332 2.832,-1.22132 6.02668,-2.22932 9.344,-3.05068 6.736,-1.27464 14.32,-1.58932 21.97332,-0.1012 7.62668,1.41868 15.55736,3.73336 23.03468,7.46136 7.57868,3.55732 15.08268,7.87732 22.00532,13.22664 3.552,2.55468 6.85868,5.488 10.19736,8.41068 l 9.34396,9.01332 c 5.952,5.79736 12,11.28536 18.56536,16.19736 3.17864,2.56 6.57064,4.73064 9.76532,7.13064 3.36532,2.08536 6.57068,4.42668 9.97332,6.21336 6.656,3.952 13.45068,6.976 19.99468,9.62132 6.62932,2.336 13.05068,4.23468 19.13068,5.21068 6.08,1.00264 11.776,1.35464 16.82664,1.22132 2.51736,-0.1652 4.91204,-0.2292 7.10936,-0.44268 2.176,-0.3468 4.18668,-0.66132 6,-0.95464 3.68,-0.50136 6.41068,-1.57336 8.384,-1.98936 1.952,-0.512 2.98132,-0.78932 2.98132,-0.78932 0,0 -0.94932,0.48532 -2.736,1.392 -1.84,0.77868 -4.35732,2.54932 -7.97864,3.66932 -1.81336,0.61868 -3.808,1.30136 -5.98936,2.048 -2.208,0.65068 -4.67732,1.01868 -7.312,1.58936 -5.264,0.93332 -11.37068,1.45064 -18.01068,1.04532 -3.36,0.032 -6.74664,-0.73068 -10.34132,-1.09332 -3.54132,-0.58668 -7.12532,-1.54136 -10.82668,-2.46936 -7.264,-2.25064 -14.93332,-4.88532 -22.208,-8.85332 -7.37064,-3.76532 -14.752,-8.13868 -21.664,-13.37068 -6.96532,-5.04532 -13.696,-10.91732 -20.04264,-16.944 l -8.90668,-8.89064 c -3.01864,-2.70936 -6,-5.46136 -9.232,-7.86136 -6.33064,-4.96 -12.90664,-9.47732 -19.68532,-12.98132 -6.70932,-3.664 -13.55732,-6.35732 -20.208,-8.16532 -1.68,-0.3788 -3.33332,-0.752 -4.96532,-1.11468 -1.63736,-0.3468 -3.248,-0.3468 -4.85336,-0.58668 -3.22132,-0.58132 -6.256,-0.1388 -9.264,-0.128 -2.912,0.368 -5.71732,0.98668 -8.34664,1.66936 -2.46936,1.08264 -5.08268,1.696 -7.15736,3.01864 -2.064,1.32268 -4.11732,2.48 -5.872,3.73336 -1.62664,1.43464 -3.12,2.752 -4.46932,3.94132 -2.768,2.40532 -4.38932,5.01868 -5.74932,6.45868 -1.29068,1.54132 -1.97868,2.368 -1.97868,2.368"
         style="fill:#100f0d;fill-opacity:1;fill-rule:nonzero;stroke:none;stroke-width:0.5333333"
         id="path16"
         inkscape:connector-curvature="0" />
      <path
         d="m 826.13663,225.38677 c 50.03732,-21.488 94.91732,59.42932 148.624,55.48268 27.87737,-2.048 42.65067,-29.79736 39.63737,-55.48268 -3.1307,-26.52264 -23.23737,-48.08532 -40.12805,-68.97064 -15.92,-19.68 -56.98132,-55.87736 -8.976,-61.381364 23.85068,-2.736 73.89335,-4.256 74.85335,-28.192 1.9893,-49.53064 -132.08003,-14.70932 -152.58135,11.89868 -22.736,29.504004 42.192,97.328004 53.504,124.842684 -32.35732,7.09864 -93.22132,-13.568 -112.95464,19.81864"
         style="fill:#100f0d;fill-opacity:1;fill-rule:nonzero;stroke:none;stroke-width:0.5333333"
         id="path18"
         inkscape:connector-curvature="0" />
      <path
         d="m 1135.2726,206.55477 c 0,26.816 -21.7333,48.54932 -48.5546,48.54932 -26.8107,0 -48.544,-21.73332 -48.544,-48.54932 0,-26.81064 21.7333,-48.54932 48.544,-48.54932 26.8213,0 48.5546,21.73868 48.5546,48.54932"
         style="fill:#100f0d;fill-opacity:1;fill-rule:nonzero;stroke:none;stroke-width:0.5333333"
         id="path20"
         inkscape:connector-curvature="0" />
    </g>
    <ellipse
       style="opacity:1;vector-effect:none;fill:none;fill-opacity:1;fill-rule:evenodd;stroke:#000000;stroke-width:2.16499996;stroke-linecap:butt;stroke-linejoin:miter;stroke-miterlimit:4;stroke-dasharray:none;stroke-dashoffset:0;stroke-opacity:0.97254902"
       id="path4887"
       ry="80.855972"
       rx="85.124321"
       cy="131.91522"
       cx="110.36888" />
  </g>
</svg>
