<?xml version="1.0" encoding="UTF-8" standalone="no"?>
<!-- Created with Inkscape (http://www.inkscape.org/) -->

<svg
   xmlns:dc="http://purl.org/dc/elements/1.1/"
   xmlns:cc="http://creativecommons.org/ns#"
   xmlns:rdf="http://www.w3.org/1999/02/22-rdf-syntax-ns#"
   xmlns:svg="http://www.w3.org/2000/svg"
   xmlns="http://www.w3.org/2000/svg"
   xmlns:sodipodi="http://sodipodi.sourceforge.net/DTD/sodipodi-0.dtd"
   xmlns:inkscape="http://www.inkscape.org/namespaces/inkscape"
   width="172.41364mm"
   height="163.87694mm"
   viewBox="0 0 172.41364 163.87694"
   version="1.1"
   id="svg4334"
   inkscape:version="0.92.2 (5c3e80d, 2017-08-06)"
   sodipodi:docname="tennis.svg">
  <defs
     id="defs4328" />
  <sodipodi:namedview
     id="base"
     pagecolor="#ffffff"
     bordercolor="#666666"
     borderopacity="1.0"
     inkscape:pageopacity="0.0"
     inkscape:pageshadow="2"
     inkscape:zoom="0.82"
     inkscape:cx="17.084333"
     inkscape:cy="361.86414"
     inkscape:document-units="mm"
     inkscape:current-layer="layer1"
     inkscape:document-rotation="0"
     showgrid="false"
     inkscape:window-width="1920"
     inkscape:window-height="1016"
     inkscape:window-x="0"
     inkscape:window-y="27"
     inkscape:window-maximized="1" />
  <metadata
     id="metadata4331">
    <rdf:RDF>
      <cc:Work
         rdf:about="">
        <dc:format>image/svg+xml</dc:format>
        <dc:type
           rdf:resource="http://purl.org/dc/dcmitype/StillImage" />
        <dc:title />
      </cc:Work>
    </rdf:RDF>
  </metadata>
  <g
     inkscape:label="Calque 1"
     inkscape:groupmode="layer"
     id="layer1"
     transform="translate(-24.16206,-49.97675)">
    <g
       transform="matrix(0.44964861,0,0,0.43336528,65.348358,85.641722)"
       id="g918">
      <g
         id="g916">
        <g
           id="g914">
          <path
             inkscape:connector-curvature="0"
             style="fill:#010002"
             d="m 95.15,44.462 c 3.928,2.705 8.688,4.298 13.818,4.298 5.131,0 9.886,-1.593 13.819,-4.298 -3.744,-3.146 -8.563,-5.044 -13.819,-5.044 -5.256,0 -10.078,1.897 -13.818,5.044 z"
             id="path906" />
          <path
             inkscape:connector-curvature="0"
             style="fill:#010002"
             d="m 122.787,4.306 c -3.936,-2.71 -8.688,-4.304 -13.82,-4.304 -5.135,0 -9.891,1.594 -13.818,4.304 3.74,3.141 8.561,5.044 13.818,5.044 5.259,0 10.075,-1.903 13.82,-5.044 z"
             id="path908" />
          <path
             inkscape:connector-curvature="0"
             style="fill:#010002"
             d="m 90.836,40.641 c 4.826,-4.314 11.165,-6.963 18.132,-6.963 6.968,0 13.308,2.649 18.133,6.963 3.872,-4.314 6.252,-10.002 6.252,-16.26 0,-6.257 -2.38,-11.94 -6.252,-16.259 -4.825,4.319 -11.165,6.962 -18.133,6.962 -6.967,0 -13.306,-2.649 -18.132,-6.962 -3.872,4.319 -6.252,10.002 -6.252,16.259 0,6.258 2.38,11.946 6.252,16.26 z"
             id="path910" />
          <path
             inkscape:connector-curvature="0"
             style="fill:#010002"
             d="m 214.102,195.582 -50.55,-50.545 c -1.729,-1.729 -3.836,-2.832 -6.039,-3.385 -12.474,-15.637 -15.185,-32.972 -15.735,-39.954 4.271,-18.157 0.301,-39.278 -11.384,-57.963 -4.403,4.877 -10.438,8.231 -17.259,9.216 l 2.497,2.497 -11.248,11.244 -11.248,-11.246 4.481,-4.481 C 95.324,49.986 93.2,48.702 91.256,47.19 l -3.189,3.191 -11.243,-11.25 4.971,-4.973 C 80.836,31.493 80.26,28.652 80.128,25.693 L 71.755,34.061 60.508,22.817 70.868,12.46 c 0.804,0.183 1.606,0.421 2.411,0.634 l 7.12,7.12 C 81.155,14.982 83.292,10.201 86.456,6.274 60.913,-4.317 33.35,-1.587 15.881,15.885 -8.97,40.741 -4.121,86.018 26.684,116.827 c 21.89,21.887 51.059,30.6 75.042,24.939 6.985,0.543 24.248,3.225 39.929,15.747 0.555,2.202 1.646,4.31 3.375,6.039 l 50.555,50.549 c 5.115,5.115 13.4,5.115 18.519,0 5.113,-5.117 5.113,-13.4 -0.002,-18.519 z m -82.024,-101.19 -6.317,-6.318 6.644,-6.633 c 0.378,4.42 0.278,8.759 -0.327,12.951 z m -1.897,8.231 c -1.729,5.308 -4.405,10.202 -8.008,14.473 l -12.718,-12.712 11.247,-11.241 z m -9.48,-42.11 9.729,9.729 c 0.213,0.802 0.441,1.604 0.624,2.41 L 120.701,83.005 109.45,71.76 Z M 115.632,88.074 104.384,99.32 93.136,88.069 104.384,76.829 Z M 50.378,88.069 39.125,99.32 27.882,88.079 39.13,76.833 Z M 27.885,55.444 39.131,44.198 50.379,55.444 39.131,66.694 Z M 44.197,71.759 55.445,60.513 66.691,71.759 55.445,83.004 Z M 71.756,76.824 83.004,88.069 71.758,99.32 60.51,88.069 Z M 88.071,93.143 99.319,104.389 88.071,115.63 76.825,104.384 Z M 99.316,71.759 88.071,83.004 76.825,71.758 88.068,60.513 Z M 71.758,44.203 83.004,55.449 71.758,66.694 60.509,55.448 Z M 66.691,39.128 55.443,50.379 44.197,39.128 55.443,27.883 Z m -4.616,-28.012 -6.638,6.633 -6.315,-6.313 c 4.192,-0.604 8.533,-0.7 12.953,-0.32 z M 40.896,13.339 50.371,22.818 39.13,34.064 26.41,21.347 c 4.286,-3.603 9.173,-6.278 14.486,-8.008 z M 21.343,26.411 34.057,39.128 22.817,50.374 13.33,40.895 c 1.736,-5.314 4.405,-10.201 8.013,-14.484 z m -9.913,22.72 6.315,6.313 -6.635,6.643 c -0.383,-4.431 -0.287,-8.77 0.32,-12.956 z m 1.025,21.745 10.363,-10.363 11.24,11.246 -11.246,11.245 -9.726,-9.723 c -0.215,-0.802 -0.451,-1.609 -0.631,-2.405 z m 19.342,35.777 C 28.075,102.608 24.792,98.34 22.044,93.915 l 0.769,-0.771 11.243,11.246 z m 17.805,14.818 c -4.435,-2.745 -8.693,-6.033 -12.74,-9.753 l 2.263,-2.259 11.246,11.246 z M 44.195,104.389 55.443,93.143 66.691,104.389 55.443,115.63 Z m 26.041,26.044 -9.728,-9.731 11.248,-11.248 11.248,11.248 -10.363,10.355 c -0.799,-0.182 -1.604,-0.416 -2.405,-0.624 z m 11.191,1.975 6.643,-6.645 6.315,6.316 c -4.183,0.607 -8.53,0.708 -12.958,0.329 z m 21.198,-2.224 -9.482,-9.482 11.243,-11.248 12.712,12.718 c -4.278,3.607 -9.165,6.277 -14.473,8.012 z m 42.404,14.849 c -0.67,0.676 -1.242,1.404 -1.729,2.178 -8.852,-6.188 -17.854,-9.829 -25.46,-11.922 3.521,-2.135 6.812,-4.668 9.794,-7.651 2.984,-2.981 5.518,-6.282 7.652,-9.794 2.092,7.611 5.729,16.609 11.91,25.455 -0.766,0.496 -1.493,1.068 -2.167,1.734 z"
             id="path912" />
        </g>
      </g>
    </g>
  </g>
</svg>
