<?xml version="1.0" encoding="UTF-8" standalone="no"?>
<!-- Created with Inkscape (http://www.inkscape.org/) -->

<svg
   xmlns:dc="http://purl.org/dc/elements/1.1/"
   xmlns:cc="http://creativecommons.org/ns#"
   xmlns:rdf="http://www.w3.org/1999/02/22-rdf-syntax-ns#"
   xmlns:svg="http://www.w3.org/2000/svg"
   xmlns="http://www.w3.org/2000/svg"
   xmlns:sodipodi="http://sodipodi.sourceforge.net/DTD/sodipodi-0.dtd"
   xmlns:inkscape="http://www.inkscape.org/namespaces/inkscape"
   width="172.41364mm"
   height="163.87694mm"
   viewBox="0 0 172.41364 163.87694"
   version="1.1"
   id="svg4334"
   inkscape:version="0.92+devel unknown"
   sodipodi:docname="triathlon.svg">
  <defs
     id="defs4328" />
  <sodipodi:namedview
     id="base"
     pagecolor="#ffffff"
     bordercolor="#666666"
     borderopacity="1.0"
     inkscape:pageopacity="0.0"
     inkscape:pageshadow="2"
     inkscape:zoom="1.1596551"
     inkscape:cx="337.05039"
     inkscape:cy="287.32244"
     inkscape:document-units="mm"
     inkscape:current-layer="layer1"
     inkscape:document-rotation="0"
     showgrid="true"
     inkscape:window-width="1920"
     inkscape:window-height="1016"
     inkscape:window-x="0"
     inkscape:window-y="0"
     inkscape:window-maximized="1"
     inkscape:snap-grids="true"
     inkscape:measure-start="330,360"
     inkscape:measure-end="620,420">
    <inkscape:grid
       type="xygrid"
       id="grid4285" />
  </sodipodi:namedview>
  <metadata
     id="metadata4331">
    <rdf:RDF>
      <cc:Work
         rdf:about="">
        <dc:format>image/svg+xml</dc:format>
        <dc:type
           rdf:resource="http://purl.org/dc/dcmitype/StillImage" />
        <dc:title />
      </cc:Work>
    </rdf:RDF>
  </metadata>
  <g
     inkscape:label="Calque 1"
     inkscape:groupmode="layer"
     id="layer1"
     transform="translate(-24.16206,-49.97675)">
    <g
       transform="matrix(0.26458333,0,0,0.26458333,-72.671147,19.869882)"
       id="g12">
      <flowRoot
         xml:space="preserve"
         id="flowRoot4270"
         style="fill:black;fill-opacity:1;stroke:none;font-family:sans-serif;font-style:normal;font-weight:normal;font-size:40px"><flowRegion
           id="flowRegion4272"><rect
             id="rect4274"
             width="86.151871"
             height="75.986092"
             x="227.92017"
             y="280.72934" /></flowRegion><flowPara
           id="flowPara4276" /></flowRoot>      <flowRoot
         xml:space="preserve"
         id="flowRoot4278"
         style="fill:black;fill-opacity:1;stroke:none;font-family:sans-serif;font-style:normal;font-weight:normal;font-size:40px"><flowRegion
           id="flowRegion4280"><rect
             id="rect4282"
             width="86.837845"
             height="78.301254"
             x="228.0726"
             y="282.83014" /></flowRegion><flowPara
           id="flowPara4284" /></flowRoot>    </g>
    <ellipse
       style="opacity:1;vector-effect:none;fill:none;fill-opacity:1;fill-rule:evenodd;stroke:#000000;stroke-width:2.16499996;stroke-linecap:butt;stroke-linejoin:miter;stroke-miterlimit:4;stroke-dasharray:none;stroke-dashoffset:0;stroke-opacity:0.97254902"
       id="path4887"
       ry="80.855972"
       rx="85.124321"
       cy="131.91522"
       cx="110.36888" />
    <path
       style="fill:none;stroke:#000000;stroke-width:2.165;stroke-linecap:butt;stroke-linejoin:miter;stroke-miterlimit:4;stroke-dasharray:none;stroke-opacity:1"
       d="m 111.47456,134.47869 c 0,79.375 0,79.375 0,79.375"
       id="path4287"
       inkscape:connector-curvature="0" />
    <path
       style="fill:none;stroke:#000000;stroke-width:2.165;stroke-linecap:butt;stroke-linejoin:miter;stroke-opacity:1;stroke-miterlimit:4;stroke-dasharray:none"
       d="m 188.20372,102.72869 c -76.72916,31.75 -76.72916,31.75 -76.72916,31.75 v 0"
       id="path4289"
       inkscape:connector-curvature="0" />
    <path
       style="fill:none;stroke:#000000;stroke-width:2.165;stroke-linecap:butt;stroke-linejoin:miter;stroke-opacity:1;stroke-miterlimit:4;stroke-dasharray:none"
       d="m 111.47456,134.47869 -79.375,-31.75 v 0"
       id="path4291"
       inkscape:connector-curvature="0" />
    <path
       d="m 45.093778,167.04995 c 0,0 0.08625,-0.24765 0.247121,-0.71119 0.174096,-0.45774 0.436563,-1.14407 0.894292,-1.95317 0.450321,-0.81226 1.087437,-1.76953 2.016125,-2.71251 0.914929,-0.95196 2.138362,-1.87218 3.640666,-2.5675 1.497541,-0.7001 3.271837,-1.16205 5.191654,-1.2155 0.959379,-0.0297 1.953683,0.0339 2.977621,0.26141 0.508,0.1095 1.04193,0.28786 1.551517,0.53287 0.413808,0.19473 0.916517,0.45084 1.35255,0.70326 1.791758,1.01759 3.451754,2.28759 5.046132,3.57875 1.6002,1.2843 3.197754,2.54265 4.903259,3.48826 0.848784,0.47573 1.725084,0.87525 2.629959,1.14618 0.889528,0.272 1.863195,0.44504 2.735791,0.47891 l 0.768879,0.0159 c 0.257704,0.009 0.450849,-0.0163 0.679449,-0.0201 0.218018,0 0.445559,-0.0297 0.672572,-0.0588 0.227013,-0.0239 0.452967,-0.0513 0.672041,-0.10365 0.885825,-0.16829 1.729317,-0.46886 2.525712,-0.87737 1.588028,-0.82815 3.033185,-2.00818 4.425422,-3.13584 0.693738,-0.55774 1.39065,-1.13136 2.106081,-1.62772 0.752475,-0.52122 1.522413,-0.92498 2.317222,-1.22078 1.584854,-0.60748 3.216804,-0.58791 4.512734,-0.25453 1.3118,0.33285 2.30346,0.95727 3.054883,1.50124 0.74771,0.5588 1.25571,1.0811 1.59491,1.43616 0.33708,0.35931 0.50218,0.56304 0.50218,0.56304 0,0 -0.1995,-0.17092 -0.58685,-0.4699 -0.38259,-0.30216 -0.96679,-0.72072 -1.748373,-1.16258 -0.78211,-0.43498 -1.79281,-0.8599 -2.98291,-1.03876 -1.18904,-0.17832 -2.55005,-0.009 -3.86027,0.60748 -0.651404,0.30639 -1.304926,0.72338 -1.901294,1.21761 -0.142875,0.11115 -0.31221,0.26777 -0.471488,0.40482 -0.151344,0.1413 -0.303744,0.28416 -0.458787,0.4281 -0.318033,0.29369 -0.64135,0.59213 -0.969435,0.89481 -0.656697,0.6096 -1.339849,1.24514 -2.082799,1.87431 -0.742424,0.62813 -1.548341,1.25837 -2.479146,1.77588 -0.923396,0.52442 -1.9558,0.94457 -3.039534,1.19592 -0.269346,0.0745 -0.542396,0.1206 -0.817562,0.16193 -0.274638,0.0455 -0.549804,0.0921 -0.841375,0.1074 -0.279929,0.019 -0.595313,0.0545 -0.848784,0.0555 l -0.769407,-0.003 c -2.304522,-0.0582 -4.522788,-0.75407 -6.479646,-1.83515 -1.953155,-1.08267 -3.612621,-2.47279 -5.202237,-3.77085 -1.592793,-1.2954 -3.089276,-2.57862 -4.674129,-3.55387 -0.40058,-0.25242 -0.75618,-0.4535 -1.202268,-0.68739 -0.349779,-0.18944 -0.720195,-0.32174 -1.12395,-0.44504 -0.801687,-0.23758 -1.657349,-0.35613 -2.489729,-0.38523 -1.671108,-0.0523 -3.275013,0.21644 -4.670953,0.70538 -1.390121,0.50641 -2.592389,1.20385 -3.544889,1.97592 -0.951441,0.77416 -1.689099,1.58115 -2.233611,2.29657 -0.542925,0.71967 -0.926571,1.32027 -1.173163,1.74519 -0.238655,0.42863 -0.366183,0.65777 -0.366183,0.65777"
       style="fill:#100f0d;fill-opacity:1;fill-rule:nonzero;stroke:none;stroke-width:0.05291667"
       id="path14"
       inkscape:connector-curvature="0" />
    <path
       d="m 52.018453,166.26256 c 0,0 0.04974,-0.0942 0.142875,-0.27095 0.04762,-0.0879 0.10425,-0.19632 0.171979,-0.3249 0.0672,-0.1281 0.13758,-0.27781 0.266171,-0.42121 0.120645,-0.15135 0.254529,-0.31856 0.399521,-0.50112 0.160337,-0.16881 0.364066,-0.31857 0.570441,-0.49796 0.208492,-0.17673 0.480484,-0.28945 0.747712,-0.44979 0.280988,-0.1212 0.597958,-0.22119 0.927101,-0.30268 0.668336,-0.12645 1.420812,-0.15768 2.180167,-0.0105 0.756708,0.1407 1.543578,0.37042 2.285471,0.74031 0.751945,0.35295 1.496482,0.78157 2.183341,1.31233 0.352425,0.25347 0.680508,0.54452 1.011767,0.8345 l 0.927099,0.89428 c 0.590549,0.57521 1.190625,1.11972 1.842029,1.60709 0.315383,0.25399 0.651934,0.46936 0.968905,0.70749 0.333904,0.20691 0.651933,0.43921 0.989541,0.61648 0.6604,0.39212 1.334559,0.69215 1.983846,0.95462 0.657754,0.23178 1.29487,0.42016 1.898121,0.51699 0.60325,0.0995 1.168399,0.1344 1.669521,0.1212 0.249766,-0.0164 0.487362,-0.0228 0.705379,-0.044 0.2159,-0.0343 0.415395,-0.0655 0.595313,-0.0948 0.365124,-0.0498 0.636058,-0.15611 0.831849,-0.19737 0.193675,-0.0508 0.295804,-0.0783 0.295804,-0.0783 0,0 -0.09418,0.0481 -0.271462,0.13815 -0.182562,0.0772 -0.432329,0.25294 -0.791633,0.36406 -0.179917,0.0614 -0.377826,0.12915 -0.594255,0.20321 -0.219075,0.0645 -0.464079,0.1011 -0.725487,0.15768 -0.522288,0.0925 -1.128183,0.144 -1.786997,0.10365 -0.333375,0.003 -0.669395,-0.0725 -1.026054,-0.10845 -0.351366,-0.0582 -0.706966,-0.15293 -1.074208,-0.245 -0.720725,-0.2233 -1.481665,-0.48472 -2.203449,-0.87841 -0.731308,-0.37359 -1.463676,-0.80751 -2.149476,-1.32663 -0.691091,-0.5006 -1.3589,-1.0832 -1.988607,-1.68116 l -0.883709,-0.88212 c -0.299508,-0.26883 -0.595312,-0.54187 -0.915988,-0.78 -0.628121,-0.49213 -1.280583,-0.94033 -1.953153,-1.28799 -0.665693,-0.36354 -1.345142,-0.63076 -2.005013,-0.81016 -0.166687,-0.0376 -0.330729,-0.0745 -0.492654,-0.11055 -0.162454,-0.0343 -0.322263,-0.0343 -0.481542,-0.0582 -0.319617,-0.0577 -0.620712,-0.0135 -0.919162,-0.0135 -0.288926,0.0365 -0.567267,0.0979 -0.828146,0.16563 -0.245004,0.1074 -0.504297,0.16828 -0.710142,0.2995 -0.204787,0.13125 -0.408517,0.24608 -0.582612,0.37043 -0.161397,0.14235 -0.309562,0.27304 -0.443442,0.39105 -0.274638,0.23865 -0.435504,0.49795 -0.570442,0.64083 -0.128055,0.15292 -0.19632,0.23494 -0.19632,0.23494"
       style="fill:#100f0d;fill-opacity:1;fill-rule:nonzero;stroke:none;stroke-width:0.05291667"
       id="path16"
       inkscape:connector-curvature="0" />
    <path
       d="m 63.029353,157.80859 c 4.964642,-2.13201 9.417579,5.8965 14.746287,5.50492 2.765954,-0.2032 4.231746,-2.95645 3.932766,-5.50492 -0.31062,-2.63154 -2.305579,-4.77098 -3.98145,-6.84318 -1.579563,-1.95263 -5.653617,-5.54409 -0.890588,-6.09018 2.366433,-0.27147 7.331604,-0.42228 7.426854,-2.79719 0.197379,-4.91436 -13.104811,-1.45944 -15.138928,1.18058 -2.255838,2.92735 4.186237,9.65676 5.308599,12.38673 -3.210453,0.70432 -9.249303,-1.34619 -11.20722,1.96639"
       style="fill:#100f0d;fill-opacity:1;fill-rule:nonzero;stroke:none;stroke-width:0.05291667"
       id="path18"
       inkscape:connector-curvature="0" />
    <path
       d="m 93.701437,155.9401 c 0,2.66065 -2.156353,4.81701 -4.817531,4.81701 -2.660122,0 -4.816475,-2.15636 -4.816475,-4.81701 0,-2.66012 2.156353,-4.81701 4.816475,-4.81701 2.661178,0 4.817531,2.15689 4.817531,4.81701"
       style="fill:#100f0d;fill-opacity:1;fill-rule:nonzero;stroke:none;stroke-width:0.05291667"
       id="path20"
       inkscape:connector-curvature="0" />
    <path
       d="m 94.716933,92.531689 c -6.220351,0.0111 -11.253796,5.062538 -11.242156,11.284481 0.012,6.22088 5.06361,11.25484 11.283956,11.2432 6.221947,-0.012 11.256437,-5.06412 11.244797,-11.28501 -0.012,-6.220879 -5.06466,-11.254842 -11.286597,-11.242671 z m 0.003,2.187575 c 5.00486,-0.0084 9.083667,4.054474 9.093717,9.059326 0.008,5.00381 -4.054987,9.08315 -9.059327,9.09162 -5.003801,0.009 -9.081551,-4.05501 -9.091076,-9.05775 -0.0105,-5.004855 4.052895,-9.084201 9.056696,-9.093196"
       style="fill:#100f0d;fill-opacity:1;fill-rule:nonzero;stroke:none;stroke-width:0.05291667"
       id="path96"
       inkscape:connector-curvature="0" />
    <path
       d="m 127.91631,92.469247 c -6.21982,0.0111 -11.25325,5.064125 -11.24214,11.285533 0.012,6.21983 5.06466,11.25379 11.28501,11.24267 6.22194,-0.012 11.25378,-5.06518 11.24267,-11.28553 -0.012,-6.221411 -5.0636,-11.254844 -11.28554,-11.242673 z m 0.003,2.188104 c 5.00433,-0.009 9.08367,4.054475 9.09267,9.059329 0.009,5.00275 -4.05447,9.08263 -9.05827,9.09109 -5.00313,0.0105 -9.08195,-4.05395 -9.09201,-9.05722 -0.007,-5.004857 4.05394,-9.083144 9.05775,-9.093199"
       style="fill:#100f0d;fill-opacity:1;fill-rule:nonzero;stroke:none;stroke-width:0.05291667"
       id="path98"
       inkscape:connector-curvature="0" />
    <path
       d="m 116.53077,76.437613 c 2.29235,-0.0042 4.14761,-1.865841 4.14284,-4.15819 -0.003,-2.291822 -1.86584,-4.147608 -4.15766,-4.143375 -2.29182,0.0048 -4.14708,1.8669 -4.14337,4.15819 0.005,2.292879 1.86637,4.14761 4.15819,4.143375"
       style="fill:#100f0d;fill-opacity:1;fill-rule:nonzero;stroke:none;stroke-width:0.05291667"
       id="path100"
       inkscape:connector-curvature="0" />
    <path
       d="m 125.34615,83.489289 -7.64064,0.01425 -5.54725,-8.526462 c -0.84507,-1.51973 -2.57016,-1.496447 -3.42687,-0.391017 l -9.908127,10.098616 c -1.74624,1.795992 -1.08956,4.100513 0.60484,5.157788 l 9.111717,5.538258 0.0174,8.936038 c 0.003,1.43563 1.1684,2.59715 2.60403,2.5945 1.43562,-0.003 2.59767,-1.16893 2.59503,-2.60403 l -0.0222,-11.857562 c -0.003,-1.435629 -1.06468,-2.26695 -2.25901,-2.949047 -5.1e-4,-0.0011 -5.1e-4,-0.0011 -5.1e-4,-0.0011 l -4.40796,-2.678112 5.38321,-5.411259 2.98079,4.625447 c 0.32332,0.510117 0.69532,0.753004 1.36737,0.751416 0.006,0 8.55504,-0.01425 8.55504,-0.01425 0.90592,-0.0016 1.63989,-0.737658 1.63777,-1.64412 -0.002,-0.907521 -0.73819,-1.641476 -1.64466,-1.639359"
       style="fill:#100f0d;fill-opacity:1;fill-rule:nonzero;stroke:none;stroke-width:0.05291667"
       id="path102"
       inkscape:connector-curvature="0" />
    <path
       d="m 128.48199,103.31452 -1.8108,0.44502 -3.46605,-14.109693 1.81028,-0.445029 3.46657,14.109702"
       style="fill:#100f0d;fill-opacity:1;fill-rule:nonzero;stroke:none;stroke-width:0.05291667"
       id="path104"
       inkscape:connector-curvature="0" />
    <path
       d="m 95.005863,104.0109 -1.63248,-0.90117 7.984587,-14.45895 1.63248,0.901171 -7.984587,14.458949"
       style="fill:#100f0d;fill-opacity:1;fill-rule:nonzero;stroke:none;stroke-width:0.05291667"
       id="path106"
       inkscape:connector-curvature="0" />
    <path
       d="m 95.822883,103.60503 c 0,1.19486 -0.96837,2.16323 -2.16375,2.16323 -1.19381,0 -2.16272,-0.96837 -2.16272,-2.16323 0,-1.19433 0.96891,-2.16271 2.16272,-2.16271 1.19538,0 2.16375,0.96838 2.16375,2.16271"
       style="fill:#100f0d;fill-opacity:1;fill-rule:nonzero;stroke:none;stroke-width:0.05291667"
       id="path108"
       inkscape:connector-curvature="0" />
    <path
       d="m 164.62988,142.8639 c 0,2.45693 -1.99177,4.44807 -4.44817,4.44807 -2.45639,0 -4.44765,-1.99114 -4.44765,-4.44807 0,-2.45586 1.99126,-4.44721 4.44765,-4.44721 2.4564,0 4.44817,1.99135 4.44817,4.44721"
       style="fill:#100f0d;fill-opacity:1;fill-rule:nonzero;stroke:none;stroke-width:0.05291667"
       id="path214"
       inkscape:connector-curvature="0" />
    <path
       d="m 153.80789,163.58285 c -1.22872,2.00607 -3.84969,2.63361 -5.85417,1.40499 v 0 c -2.00448,-1.22931 -2.63313,-3.85032 -1.40388,-5.85539 l 6.06056,-9.88383 c 1.22977,-2.00485 3.85021,-2.63197 5.85469,-1.40329 v 0 c 2.00501,1.22988 2.63313,3.84969 1.40336,5.85469 l -6.06056,9.88283"
       style="fill:#100f0d;fill-opacity:1;fill-rule:nonzero;stroke:none;stroke-width:0.05291667"
       id="path216"
       inkscape:connector-curvature="0" />
    <path
       d="m 149.74972,171.1547 c 0,1.30222 -0.9779,2.35849 -2.18282,2.35849 v 0 c -1.20649,0 -2.18334,-1.05627 -2.18334,-2.35849 v -8.38422 c 0,-1.30329 0.97685,-2.35745 2.18334,-2.35745 v 0 c 1.20492,0 2.18282,1.05416 2.18282,2.35745 v 8.38422"
       style="fill:#100f0d;fill-opacity:1;fill-rule:nonzero;stroke:none;stroke-width:0.05291667"
       id="path218"
       inkscape:connector-curvature="0" />
    <path
       d="m 137.8133,172.36802 c -1.29274,-0.14985 -2.2299,-1.24143 -2.09073,-2.44058 v 0 c 0.1386,-1.19745 1.29963,-2.04618 2.59397,-1.89589 l 8.32909,0.96514 c 1.29327,0.14985 2.2299,1.24185 2.09073,2.43995 v 0 c -0.1386,1.19703 -1.30015,2.04639 -2.59291,1.89652 l -8.33015,-0.96514"
       style="fill:#100f0d;fill-opacity:1;fill-rule:nonzero;stroke:none;stroke-width:0.05291667"
       id="path220"
       inkscape:connector-curvature="0" />
    <path
       d="m 146.62922,144.82659 c -1.20015,-0.36793 -2.42728,0.11475 -2.74002,1.07876 v 0 c -0.31275,0.96202 0.40692,2.04105 1.6076,2.4094 l 7.73272,2.36861 c 1.20015,0.36813 2.42781,-0.11535 2.74109,-1.07798 v 0 c 0.31167,-0.96403 -0.40746,-2.04306 -1.60868,-2.40976 l -7.73271,-2.36903"
       style="fill:#100f0d;fill-opacity:1;fill-rule:nonzero;stroke:none;stroke-width:0.05291667"
       id="path222"
       inkscape:connector-curvature="0" />
    <path
       d="m 144.08234,154.47207 c 0.0969,1.08851 0.99167,1.89654 2.00078,1.80764 v 0 c 1.0086,-0.0893 1.74678,-1.04654 1.64941,-2.13402 l -0.62547,-7.0104 c -0.0969,-1.08686 -0.99271,-1.89759 -2.00079,-1.80663 v 0 c -1.00806,0.0879 -1.74624,1.04404 -1.64835,2.13196 l 0.62442,7.01145"
       style="fill:#100f0d;fill-opacity:1;fill-rule:nonzero;stroke:none;stroke-width:0.05291667"
       id="path224"
       inkscape:connector-curvature="0" />
    <path
       d="m 160.26268,160.78715 c 0.44131,1.17534 1.5732,1.85209 2.52835,1.51041 v 0 c 0.95303,-0.34148 1.36683,-1.57014 0.92445,-2.74548 l -2.85061,-7.56851 c -0.44345,-1.17492 -1.57587,-1.85002 -2.52837,-1.51083 v 0 c -0.95408,0.34169 -1.36842,1.57221 -0.92498,2.74691 l 2.85116,7.5675"
       style="fill:#100f0d;fill-opacity:1;fill-rule:nonzero;stroke:none;stroke-width:0.05291667"
       id="path226"
       inkscape:connector-curvature="0" />
    <path
       d="m 169.45324,156.90852 c 0.80221,-0.74205 0.89535,-1.94427 0.20796,-2.68822 v 0 c -0.68685,-0.7431 -1.89548,-0.74184 -2.69717,-9.9e-4 l -5.16625,4.77984 c -0.80222,0.74148 -0.89481,1.94533 -0.20796,2.68716 v 0 c 0.68634,0.74454 1.89388,0.74454 2.69557,0.001 l 5.16785,-4.77986"
       style="fill:#100f0d;fill-opacity:1;fill-rule:nonzero;stroke:none;stroke-width:0.05291667"
       id="path228"
       inkscape:connector-curvature="0" />
    <path
       d="m 159.09322,169.49358 c 0.97471,0.86303 1.11813,2.29548 0.3196,3.19776 v 0 c -0.79851,0.90329 -2.23837,0.93657 -3.21204,0.0735 l -6.28225,-5.55313 c -0.97421,-0.86303 -1.1192,-2.29442 -0.3191,-3.19877 v 0 c 0.79851,-0.90228 2.23679,-0.93657 3.21152,-0.0726 l 6.28227,5.55314"
       style="fill:#100f0d;fill-opacity:1;fill-rule:nonzero;stroke:none;stroke-width:0.05291667"
       id="path230"
       inkscape:connector-curvature="0" />
    <path
       d="m 155.95472,181.2839 c -0.45613,1.22184 -1.73937,1.86901 -2.87019,1.44732 v 0 c -1.13031,-0.42164 -1.67694,-1.75202 -1.22185,-2.97243 l 2.93106,-7.85586 c 0.45561,-1.22078 1.73937,-1.86758 2.86966,-1.44632 v 0 c 1.12977,0.42069 1.6764,1.75308 1.22132,2.97287 l -2.93,7.85442"
       style="fill:#100f0d;fill-opacity:1;fill-rule:nonzero;stroke:none;stroke-width:0.05291667"
       id="path232"
       inkscape:connector-curvature="0" />
    <path
       d="m 128.70793,171.91616 c -1.05569,0 -2.00765,-0.35136 -2.69187,-1.28963 -0.38471,-0.5271 -0.26882,-1.26523 0.25717,-1.64952 0.52601,-0.38238 1.26471,-0.26871 1.64783,0.25839 0.34926,0.47732 1.62666,0.84915 6.27645,-2.01681 l 0.15505,-0.0957 c 1.07367,-0.6594 2.13677,-1.44298 3.16283,-2.20117 2.3823,-1.75742 4.84557,-3.57416 7.84119,-4.20174 3.45705,-0.7212 6.49498,0.57901 9.43239,1.83679 3.56605,1.52924 6.64581,2.84967 10.2108,0.68961 0.87736,-0.53044 1.85526,-1.49967 2.90989,-2.87983 0.39635,-0.51636 1.13612,-0.61701 1.65365,-0.22119 0.51805,0.39582 0.61753,1.13607 0.22171,1.65364 -1.252,1.63835 -2.41776,2.77172 -3.56235,3.46541 -4.60216,2.78659 -8.72542,1.01928 -12.36292,-0.5397 -2.7215,-1.16459 -5.29166,-2.2653 -8.02005,-1.69476 -2.49237,0.52107 -4.64502,2.10856 -6.92361,3.78973 -1.0668,0.78798 -2.16906,1.60137 -3.32741,2.31368 l -0.15397,0.0936 c -1.48961,0.919 -4.36245,2.68923 -6.72678,2.68923"
       style="fill:#100f0d;fill-opacity:1;fill-rule:nonzero;stroke:none;stroke-width:0.05291667"
       id="path234"
       inkscape:connector-curvature="0" />
  </g>
</svg>
